<?xml version="1.0" encoding="utf-8"?>
<!-- Generator: Adobe Illustrator 18.0.0, SVG Export Plug-In . SVG Version: 6.00 Build 0)  -->
<!DOCTYPE svg PUBLIC "-//W3C//DTD SVG 1.1//EN" "http://www.w3.org/Graphics/SVG/1.1/DTD/svg11.dtd">
<svg version="1.1" id="Layer_1" xmlns="http://www.w3.org/2000/svg" xmlns:xlink="http://www.w3.org/1999/xlink" x="0px" y="0px"
	 viewBox="0 0 199.7 199.5" enable-background="new 0 0 199.7 199.5" xml:space="preserve">
<g>
	<g display="none">
		<linearGradient id="SVGID_1_" gradientUnits="userSpaceOnUse" x1="236.2052" y1="-39.6695" x2="7.9055" y2="188.6301">
			<stop  offset="0" style="stop-color:#393658"/>
			<stop  offset="1" style="stop-color:#091934"/>
		</linearGradient>
		<rect x="-45.1" y="-46.4" fill-rule="evenodd" clip-rule="evenodd" fill="url(#SVGID_1_)" width="288" height="288"/>
		<g>
			
				<radialGradient id="SVGID_2_" cx="-1264.3264" cy="-600.3164" r="16.5734" gradientTransform="matrix(-0.1218 -12.8821 16.7823 -0.1585 10207.8887 -16412.7441)" gradientUnits="userSpaceOnUse">
				<stop  offset="0" style="stop-color:#F3723F"/>
				<stop  offset="5.840641e-002" style="stop-color:#BF613D"/>
				<stop  offset="0.14" style="stop-color:#8B4E36"/>
				<stop  offset="0.2275" style="stop-color:#643D2E"/>
				<stop  offset="0.3196" style="stop-color:#472F26"/>
				<stop  offset="0.4176" style="stop-color:#31231E"/>
				<stop  offset="0.5238" style="stop-color:#1F1714"/>
				<stop  offset="0.6421" style="stop-color:#100C0B"/>
				<stop  offset="0.7823" style="stop-color:#050403"/>
				<stop  offset="1" style="stop-color:#010101"/>
			</radialGradient>
			<path fill="url(#SVGID_2_)" d="M9.6-46.4c-0.6,6.2-1,12.5-0.9,18.9C9.7,78.4,111,165.4,242.9,181.1V-46.4H9.6z"/>
			
				<radialGradient id="SVGID_3_" cx="-1264.3453" cy="-600.3162" r="8.4755" gradientTransform="matrix(-0.1218 -12.8821 16.7823 -0.1585 10207.8887 -16412.7441)" gradientUnits="userSpaceOnUse">
				<stop  offset="0" style="stop-color:#F3723F"/>
				<stop  offset="5.840641e-002" style="stop-color:#BF613D"/>
				<stop  offset="0.14" style="stop-color:#8B4E36"/>
				<stop  offset="0.2275" style="stop-color:#643D2E"/>
				<stop  offset="0.3196" style="stop-color:#472F26"/>
				<stop  offset="0.4176" style="stop-color:#31231E"/>
				<stop  offset="0.5238" style="stop-color:#1F1714"/>
				<stop  offset="0.6421" style="stop-color:#100C0B"/>
				<stop  offset="0.7823" style="stop-color:#050403"/>
				<stop  offset="1" style="stop-color:#010101"/>
			</radialGradient>
			<path fill="url(#SVGID_3_)" d="M146.6-46.4c-1.2,5.7-1.7,11.6-1.7,17.6c0.5,48.2,41.5,88.6,98,102.6V-46.4H146.6z"/>
		</g>
	</g>
	<g opacity="0.3">
		<radialGradient id="SVGID_4_" cx="96.2382" cy="99.107" r="102.3319" gradientUnits="userSpaceOnUse">
			<stop  offset="0" style="stop-color:#D2DE26"/>
			<stop  offset="9.240635e-002" style="stop-color:#C8DA2B"/>
			<stop  offset="0.2525" style="stop-color:#ADD136"/>
			<stop  offset="0.4599" style="stop-color:#80C342"/>
			<stop  offset="0.5152" style="stop-color:#71BF44"/>
			<stop  offset="0.8727" style="stop-color:#2A8440"/>
			<stop  offset="1" style="stop-color:#389745"/>
		</radialGradient>
		<path fill="url(#SVGID_4_)" d="M51.1,11.5c0,0-0.1,0-0.1,0c-0.2,0.1-0.6,0.3-0.6,0.3c-0.1,0-0.6,0.5-0.6,0.5c0,0-0.1,0.1-0.1,0.1
			c0,0,0.3,0.1,1.1-0.5C51.2,11.6,51.2,11.5,51.1,11.5z"/>
		<radialGradient id="SVGID_5_" cx="96.2084" cy="99.4606" r="102.6399" gradientUnits="userSpaceOnUse">
			<stop  offset="0" style="stop-color:#D2DE26"/>
			<stop  offset="9.240635e-002" style="stop-color:#C8DA2B"/>
			<stop  offset="0.2525" style="stop-color:#ADD136"/>
			<stop  offset="0.4599" style="stop-color:#80C342"/>
			<stop  offset="0.5152" style="stop-color:#71BF44"/>
			<stop  offset="0.8727" style="stop-color:#2A8440"/>
			<stop  offset="1" style="stop-color:#389745"/>
		</radialGradient>
		<path fill="url(#SVGID_5_)" d="M49.7,11C49.7,10.9,49.7,11,49.7,11c-0.2,0.1-0.5,0.2-0.6,0.3c-0.1,0-0.1,0.1-0.1,0.1
			c0,0,0.2,0,0.3-0.1C49.4,11.2,49.7,11,49.7,11z"/>
		<radialGradient id="SVGID_6_" cx="96.1704" cy="99.2756" r="102.4561" gradientUnits="userSpaceOnUse">
			<stop  offset="0" style="stop-color:#D2DE26"/>
			<stop  offset="9.240635e-002" style="stop-color:#C8DA2B"/>
			<stop  offset="0.2525" style="stop-color:#ADD136"/>
			<stop  offset="0.4599" style="stop-color:#80C342"/>
			<stop  offset="0.5152" style="stop-color:#71BF44"/>
			<stop  offset="0.8727" style="stop-color:#2A8440"/>
			<stop  offset="1" style="stop-color:#389745"/>
		</radialGradient>
		<path fill="url(#SVGID_6_)" d="M52.2,9.9c0.2-0.1,0.2-0.1,0.5-0.2c0,0,0.2-0.1,0.6-0.3c0,0,0.4-0.2,0.5-0.3c0,0,0,0-0.1,0
			c0,0-1.5,0.5-2.9,1.3l0.8-0.3C51.8,10,52,9.9,52.2,9.9z"/>
		<radialGradient id="SVGID_7_" cx="96.1651" cy="99.219" r="102.4002" gradientUnits="userSpaceOnUse">
			<stop  offset="0" style="stop-color:#D2DE26"/>
			<stop  offset="9.240635e-002" style="stop-color:#C8DA2B"/>
			<stop  offset="0.2525" style="stop-color:#ADD136"/>
			<stop  offset="0.4599" style="stop-color:#80C342"/>
			<stop  offset="0.5152" style="stop-color:#71BF44"/>
			<stop  offset="0.8727" style="stop-color:#2A8440"/>
			<stop  offset="1" style="stop-color:#389745"/>
		</radialGradient>
		<path fill="url(#SVGID_7_)" d="M50.6,10.8C50.6,10.8,50.6,10.8,50.6,10.8c0,0,0-0.1,0.6-0.3c0.2-0.1,0.5-0.2,0.6-0.3
			c0,0,0.1,0,0.1-0.1c0,0-0.1,0-0.1,0c-1.6,0.5-2.9,1.4-3.1,1.6C48.7,11.8,50.5,10.9,50.6,10.8C50.6,10.8,50.6,10.8,50.6,10.8z"/>
		<radialGradient id="SVGID_8_" cx="96.1093" cy="99.1363" r="102.2988" gradientUnits="userSpaceOnUse">
			<stop  offset="0" style="stop-color:#D2DE26"/>
			<stop  offset="9.240635e-002" style="stop-color:#C8DA2B"/>
			<stop  offset="0.2525" style="stop-color:#ADD136"/>
			<stop  offset="0.4599" style="stop-color:#80C342"/>
			<stop  offset="0.5152" style="stop-color:#71BF44"/>
			<stop  offset="0.8727" style="stop-color:#2A8440"/>
			<stop  offset="1" style="stop-color:#389745"/>
		</radialGradient>
		<path fill="url(#SVGID_8_)" d="M52.3,10.6C52.3,10.6,52.3,10.6,52.3,10.6c0.2-0.1,0.2-0.2,0.3-0.2c0.1-0.1,0.2-0.2,0.3-0.3
			c0.1-0.1,0.1-0.1,0.1-0.1c0,0,0,0-0.1,0c-0.3,0.1-0.9,0.5-0.9,0.6c0,0,0,0,0,0c0.1,0,0.1,0-0.1,0.2C51.8,10.9,52.3,10.6,52.3,10.6
			z"/>
		<radialGradient id="SVGID_9_" cx="96.1689" cy="99.2479" r="102.428" gradientUnits="userSpaceOnUse">
			<stop  offset="0" style="stop-color:#D2DE26"/>
			<stop  offset="9.240635e-002" style="stop-color:#C8DA2B"/>
			<stop  offset="0.2525" style="stop-color:#ADD136"/>
			<stop  offset="0.4599" style="stop-color:#80C342"/>
			<stop  offset="0.5152" style="stop-color:#71BF44"/>
			<stop  offset="0.8727" style="stop-color:#2A8440"/>
			<stop  offset="1" style="stop-color:#389745"/>
		</radialGradient>
		<path fill="url(#SVGID_9_)" d="M48.1,13.6c0,0-0.1,0-0.1,0c-0.1,0-0.3,0.1-0.3,0.1c-0.4,0.2-0.8,0.5-0.9,0.6c0,0,0,0,0,0
			c0.1,0,0.8-0.3,1.1-0.5C48.1,13.7,48.2,13.6,48.1,13.6z"/>
		<radialGradient id="SVGID_10_" cx="96.1802" cy="99.2027" r="102.3936" gradientUnits="userSpaceOnUse">
			<stop  offset="0" style="stop-color:#D2DE26"/>
			<stop  offset="9.240635e-002" style="stop-color:#C8DA2B"/>
			<stop  offset="0.2525" style="stop-color:#ADD136"/>
			<stop  offset="0.4599" style="stop-color:#80C342"/>
			<stop  offset="0.5152" style="stop-color:#71BF44"/>
			<stop  offset="0.8727" style="stop-color:#2A8440"/>
			<stop  offset="1" style="stop-color:#389745"/>
		</radialGradient>
		<path fill="url(#SVGID_10_)" d="M48.9,15.3c0,0-0.1-0.1-0.3,0c0,0-0.1,0-0.1,0c-0.4,0.1-0.7,0.1-1.1,0.2c-0.4,0.1-1.9,0.8-2.1,1
			c0,0,0,0,0,0c0.1,0,0.2,0,0.4,0.1c0.2,0.1,0.1,0.2,0.1,0.3c-0.1,0.1-1,0.8-1.3,0.9c-0.1,0.1-0.1,0.1-0.2,0.1
			c-0.1-0.3,0.3-0.4,0.3-0.6c-0.2,0-1.1,0.5-1.2,0.7c0,0,0,0.1,0,0.1c0.1,0.2,0.2,0.4,0.2,0.6c0,0.1,0.1,0.2,0.1,0.2
			c0,0.2-0.1,0.3-0.1,0.5c0,0,0,0.1,0,0.1c0.3,0.3,2.7-1.1,3.3-1.8c0.1-0.1,0.6-1,0.3-1c-0.3,0-0.6,0.2-0.8,0.2
			c0.6-0.4,1.2-0.6,1.7-1C48.2,16,48.9,15.4,48.9,15.3z"/>
		<radialGradient id="SVGID_11_" cx="96.1666" cy="99.2279" r="102.4081" gradientUnits="userSpaceOnUse">
			<stop  offset="0" style="stop-color:#D2DE26"/>
			<stop  offset="9.240635e-002" style="stop-color:#C8DA2B"/>
			<stop  offset="0.2525" style="stop-color:#ADD136"/>
			<stop  offset="0.4599" style="stop-color:#80C342"/>
			<stop  offset="0.5152" style="stop-color:#71BF44"/>
			<stop  offset="0.8727" style="stop-color:#2A8440"/>
			<stop  offset="1" style="stop-color:#389745"/>
		</radialGradient>
		<path fill="url(#SVGID_11_)" d="M42,15.2c1-0.5,1.9-1.2,2.9-1.7c-1,0.6-1,0.6-1.1,0.7l3.5-2c0.1,0,0.2-0.1,0.3-0.2
			c0,0-0.1,0-0.1,0c-0.7,0.3-5.7,3-6.7,3.8C41.3,15.8,41.6,15.4,42,15.2C42.1,15.2,42,15.2,42,15.2z"/>
		<radialGradient id="SVGID_12_" cx="96.1389" cy="99.2057" r="102.37" gradientUnits="userSpaceOnUse">
			<stop  offset="0" style="stop-color:#D2DE26"/>
			<stop  offset="9.240635e-002" style="stop-color:#C8DA2B"/>
			<stop  offset="0.2525" style="stop-color:#ADD136"/>
			<stop  offset="0.4599" style="stop-color:#80C342"/>
			<stop  offset="0.5152" style="stop-color:#71BF44"/>
			<stop  offset="0.8727" style="stop-color:#2A8440"/>
			<stop  offset="1" style="stop-color:#389745"/>
		</radialGradient>
		<path fill="url(#SVGID_12_)" d="M42,22.6C42,22.6,42,22.6,42,22.6c-0.1,0-0.2,0.1-0.3,0.1c-0.5,0.4-0.8,0.8-1.3,1.1
			c-0.8,0.5-1.1,0.7-1.1,0.8c0,0,0,0,0,0c0.1,0,0.1,0,0.3,0c0.3-0.1,0.4-0.1,0.4,0c0.1,0.1,0.1,0.3,0.2,0.3c0,0,0.3,0,0.5,0
			c1.4-0.3,2-0.8,2-0.8c0.2-0.2-0.2-0.9-0.2-0.9C42.4,22.7,42.1,22.6,42,22.6z"/>
		<radialGradient id="SVGID_13_" cx="96.1876" cy="99.178" r="102.3741" gradientUnits="userSpaceOnUse">
			<stop  offset="0" style="stop-color:#D2DE26"/>
			<stop  offset="9.240635e-002" style="stop-color:#C8DA2B"/>
			<stop  offset="0.2525" style="stop-color:#ADD136"/>
			<stop  offset="0.4599" style="stop-color:#80C342"/>
			<stop  offset="0.5152" style="stop-color:#71BF44"/>
			<stop  offset="0.8727" style="stop-color:#2A8440"/>
			<stop  offset="1" style="stop-color:#389745"/>
		</radialGradient>
		<path fill="url(#SVGID_13_)" d="M44,16.6c0,0-0.1,0-0.2,0c-0.8,0.2-1.3,0.7-1.3,0.7c0,0,0,0,0,0c0.1,0,0.2,0,0.2,0
			c0,0.1,0,0.1-0.1,0.2c0,0.1-0.2,0.3,0,0.3c0.3-0.1,1-0.7,1.1-0.8C44.1,16.8,44.2,16.6,44,16.6z"/>
		
			<radialGradient id="SVGID_14_" cx="96.1721" cy="99.1913" r="102.3775" fx="197.3995" fy="83.8885" gradientUnits="userSpaceOnUse">
			<stop  offset="0" style="stop-color:#2E3370"/>
			<stop  offset="0.5754" style="stop-color:#24356D"/>
		</radialGradient>
		<path fill="url(#SVGID_14_)" d="M77.7,2.9c-0.5,0.6-1.8,1-2.5,1.2c0,0-3.6,1.1-3.8,1.3c-1,1.3,1.5,1.8,1.5,1.8
			c6.2-0.5,6.3-0.4,6.7,0c0,0,2.9,3.2,2,5c-0.4,0.7-0.4,0.7-0.4,0.8c0.1,0.4,0.5,0.4,0.6,0.7c0.2,0.5,0,1,0.3,1.5
			c0.8-0.2,1.5-1,2.4-0.6c1.7,0.7,0.9,2.1,0.9,2.1c-0.7,0.8-1.9,0.8-2.5,1.7c-0.3,0.5-0.7,1.9-0.4,2.7c0.1,0.4,4.9,8.6,7.3,9.3
			c-1.2-17-2-24.7-3.2-28.4c1.1,3.2,1.9,9.6,3.2,28.4c5.8,1.1,5.9,1,6.3,0.6c0.6-0.7,1.7-6,1.7-6c0.2-0.8-0.3-1.6,0.2-2.4
			c0.2-0.4,0.3-0.4,1.7-0.8c4.6-1.4,4.6-1.4,4.7-2.2c0.1-0.9,0.2-1.4,1-1.8c2-1,4.3-1.2,6.3-2.2c0.8-0.4,1.7-0.7,2.5-1.2
			c0,0,0.4-0.3-0.1-0.9c-0.7-0.9-1.7-1.4-2.4-2.3c-0.4-0.6-0.4-1.3-0.7-1.9c-0.3-0.7-0.2-0.9,0.2-1.3c0.6-0.6,0.2-0.8-1-1.5
			C106.4,4,106.3,4,106,3.5c0,0,0-0.1,0.1-0.2c0.1,0,0.1-0.1,0.2-0.1c-1.1-1.1-3.3-0.2-3.9-2.3c-0.1-0.1-0.3-0.1-0.4-0.2
			c0-0.1,0.1-0.2,0.1-0.3c0,0,0.1,0,0.2,0c-0.5-0.1-1.9-0.2-1.9-0.2c-1-0.1-2.2,0.2-2.4,0.2c-0.8,0.1-1.5-0.4-2.3-0.4
			C94.4,0,92,0,91,0c-1.8,0.1-1.8,0.1-2,0.2l0,0c-2,0.1-2,0.1-2.9,0.3h0c0,0,0,0-0.1,0c0,0,0,0,0,0c0,0,0,0,0.1,0
			c1.2,0.1,1.2,0.1,1.5,0.2c-0.1,0-0.1,0-1.4,0c-0.5,0-0.7,0-1.3,0.1c-4.6,0.5-7.9,2-8,2C77,2.9,77,2.9,77.7,2.9z"/>
		<radialGradient id="SVGID_15_" cx="96.1779" cy="99.1776" r="102.365" gradientUnits="userSpaceOnUse">
			<stop  offset="0" style="stop-color:#D2DE26"/>
			<stop  offset="9.240635e-002" style="stop-color:#C8DA2B"/>
			<stop  offset="0.2525" style="stop-color:#ADD136"/>
			<stop  offset="0.4599" style="stop-color:#80C342"/>
			<stop  offset="0.5152" style="stop-color:#71BF44"/>
			<stop  offset="0.8727" style="stop-color:#2A8440"/>
			<stop  offset="1" style="stop-color:#389745"/>
		</radialGradient>
		<path fill="url(#SVGID_15_)" d="M60.3,22.4c0.2-0.6,0.1-0.9-0.3-0.8c0,0-1.3,0.4-1.6,0.9c-0.1,0.3,0.4,1.2,0.6,1.4
			C59.5,24.2,60.2,22.4,60.3,22.4z"/>
		<radialGradient id="SVGID_16_" cx="96.1736" cy="99.194" r="102.3808" gradientUnits="userSpaceOnUse">
			<stop  offset="0" style="stop-color:#D2DE26"/>
			<stop  offset="9.240635e-002" style="stop-color:#C8DA2B"/>
			<stop  offset="0.2525" style="stop-color:#ADD136"/>
			<stop  offset="0.4599" style="stop-color:#80C342"/>
			<stop  offset="0.5152" style="stop-color:#71BF44"/>
			<stop  offset="0.8727" style="stop-color:#2A8440"/>
			<stop  offset="1" style="stop-color:#389745"/>
		</radialGradient>
		<path fill="url(#SVGID_16_)" d="M69.6,3.8C69.3,3.9,69,4,68.7,4.1c0.9-0.2,4-1.1,4.5-1.2c-2,0.7-3.7,1.2-5.4,1.6
			c-0.4,0.1-0.5,0.2-0.7,0.3c0,0.1-0.2,0.7-0.5,1c-0.9-0.3-3.3,1.1-3.4,1.2C63.5,7,63.8,7,64,7.1c0,0,0,0.1,0,0.1
			c0.3,0,0.4-0.1,1.4-0.4c-1.7,1-1.9,0.7-2.1,0.6c-1.3,0-1.4,0.5-1.4,0.8c-0.8,0.5-1.7,0.5-2.4,1.2c0,0,0,0.1,0.1,0.1
			c0.2,0,0.4,0,1.7-0.3c1-0.2,1.9-0.9,3-0.7c-0.1,0.2-0.1,0.2-0.3,0.4c0.7,0.1,3.1-1,2.9-1.6c-0.1,0-0.2,0-0.3-0.1
			C66.8,7,68.4,6,68.7,5.9c2.1-0.5,2.9-1.3,2.9-1.5c0,0-0.1,0-0.1,0c2-0.5,2.9-0.7,3.5-1.2c-0.2,0-0.2,0-0.5,0.1
			c0,0,4.5-1.4,4.7-1.5C78,2,78,2,77.5,2c1.1-0.3,2.2-0.5,3.3-0.7c-1.1,0-2.8,0.2-2.9,0.2c0,0-4.3,0.7-5.2,1.1
			c0,0.1,0.1,0.1,0.2,0.1c-0.2,0.1-0.3,0.1-0.8,0c-0.3,0-4,0.9-4.4,1.3C68,4.2,68,4.2,69.6,3.8z"/>
		<radialGradient id="SVGID_17_" cx="96.1738" cy="99.0663" r="102.2627" gradientUnits="userSpaceOnUse">
			<stop  offset="0" style="stop-color:#D2DE26"/>
			<stop  offset="9.240635e-002" style="stop-color:#C8DA2B"/>
			<stop  offset="0.2525" style="stop-color:#ADD136"/>
			<stop  offset="0.4599" style="stop-color:#80C342"/>
			<stop  offset="0.5152" style="stop-color:#71BF44"/>
			<stop  offset="0.8727" style="stop-color:#2A8440"/>
			<stop  offset="1" style="stop-color:#389745"/>
		</radialGradient>
		<path fill="url(#SVGID_17_)" d="M52.4,11.2c-0.1,0.1-0.1,0.3-0.2,0.4c-0.1,0.2-0.2,0.2-0.6,0.5c0-0.1,0.1-0.3,0.2-0.4
			c0-0.1,0.1-0.1,0.1-0.2c0,0-0.4,0-0.8,0.4c0,0,0.1,0,0.1,0c0,0,0,0,0,0c-0.4,0.4-1,0.4-1.5,0.7c0.1,0,0.2,0,0.2,0
			c-0.1,0.1-0.1,0.1-0.1,0.2c0.1,0,0.1,0,1.5-0.4c-0.4,0.2-1.6,0.9-1.7,1.2c0,0,0,0,0,0s1.6-0.6,1.8-0.7c0.1-0.1,0.1-0.1,1-0.9
			c0,0,0,0.1,0,0.1c0,0,0,0,0,0c0.4-0.4,0.4-0.4,1.5-1.3c0.2-0.2,0.3-0.2,0.3-0.3c-0.1,0-0.1,0-0.2,0C54,10.6,52.6,11.1,52.4,11.2
			C52.5,11.2,52.4,11.2,52.4,11.2z"/>
		<radialGradient id="SVGID_18_" cx="96.17" cy="99.1921" r="102.3782" gradientUnits="userSpaceOnUse">
			<stop  offset="0" style="stop-color:#D2DE26"/>
			<stop  offset="9.240635e-002" style="stop-color:#C8DA2B"/>
			<stop  offset="0.2525" style="stop-color:#ADD136"/>
			<stop  offset="0.4599" style="stop-color:#80C342"/>
			<stop  offset="0.5152" style="stop-color:#71BF44"/>
			<stop  offset="0.8727" style="stop-color:#2A8440"/>
			<stop  offset="1" style="stop-color:#389745"/>
		</radialGradient>
		<path fill="url(#SVGID_18_)" d="M67.9,22.5c0.7-0.1,2.1,1.8,2.1,1.8c0.3,0.5,0.7,0.9,1,0.9c0.9-0.2,2.3-3.6,2.3-3.7
			c0-0.1,0.1-0.3,0.1-0.4l-6.7-1.5c0.2-0.1,0.4-0.3,2-1c0.7-0.3,1.1-0.5,1-0.6c-0.1-0.5-2.4-2.7-3.5-2.9c-0.5-0.1-1,0.1-1.5-0.2
			c-0.5-0.3-0.5-1.1-1.2-1.1c-0.7-0.1-2.1,0.5-3.1,0.9c-1,0.4-1,0.4-1.2,0.4c-0.1-0.2-0.1-0.3-0.2-1.9c-0.4-0.2-1.7,0.1-2.1,0.1
			c-2,0.5-8,5.5-6.9,6.2c1.1,0.8,4.9,0,5.5-0.3c-0.1-0.3-0.1-0.5,1.5-0.7c1.4-0.2,1.6-0.5,1.8-0.7c0.3,0.2,1.3,1,1.3,1
			c0.5,0.5,0.7,1.2,1.1,1.8c0.6,0.7,1.9,0.6,1.9,1.9c0,0-0.3,2.9-4.2,4c-1.2,0.4-2.5,0.3-3.6,0.9c-0.5,0.3-0.5,1.1-0.4,1.2
			c0.2,0.2,0.9,0.3,3-0.4c1.6-0.5,1.6-0.5,4.4,0.7c-0.2,0.2-0.2,0.2-1.4,0.7c0.6,0.5,5.4,1.5,6.4,1c0-0.1,0-0.1-0.3-0.3
			c-0.1-0.1-0.1-0.1-2.3-2.1c1.7,0.2,2.2,0.4,3.1,1c0.2,0.1,0.3,0.2,0.4,0.2c0.5-0.2,1.4-2.2,1-2.6c-0.9-1-2.7-0.8-3.2-2.4
			C65.8,23.2,67.9,22.5,67.9,22.5z"/>
		<radialGradient id="SVGID_19_" cx="96.1467" cy="98.9167" r="102.1194" gradientUnits="userSpaceOnUse">
			<stop  offset="0" style="stop-color:#D2DE26"/>
			<stop  offset="9.240635e-002" style="stop-color:#C8DA2B"/>
			<stop  offset="0.2525" style="stop-color:#ADD136"/>
			<stop  offset="0.4599" style="stop-color:#80C342"/>
			<stop  offset="0.5152" style="stop-color:#71BF44"/>
			<stop  offset="0.8727" style="stop-color:#2A8440"/>
			<stop  offset="1" style="stop-color:#389745"/>
		</radialGradient>
		<path fill="url(#SVGID_19_)" d="M46.2,13c0.1,0,0.4-0.1,0.7-0.3c0.1,0,0.2-0.1,0.2-0.1l0,0c0,0,0,0,0,0C46.9,12.6,46.2,13,46.2,13
			z"/>
		<radialGradient id="SVGID_20_" cx="96.163" cy="99.1984" r="102.384" gradientUnits="userSpaceOnUse">
			<stop  offset="0" style="stop-color:#D2DE26"/>
			<stop  offset="9.240635e-002" style="stop-color:#C8DA2B"/>
			<stop  offset="0.2525" style="stop-color:#ADD136"/>
			<stop  offset="0.4599" style="stop-color:#80C342"/>
			<stop  offset="0.5152" style="stop-color:#71BF44"/>
			<stop  offset="0.8727" style="stop-color:#2A8440"/>
			<stop  offset="1" style="stop-color:#389745"/>
		</radialGradient>
		<path fill="url(#SVGID_20_)" d="M83,16.8l1-0.2c0,0,0.3-0.1,0.3-0.3c0-0.1,0-0.2,0-0.3c-0.1-0.2-0.3-0.2-0.4-0.3
			c-0.1-0.1-0.1-0.2-0.1-0.2c0,0,0,0,0,0c0,0-0.1-0.1-0.5,0c-0.5,0.1-1.8,0.9-1,1.3C82.5,16.8,82.7,16.8,83,16.8z"/>
		<radialGradient id="SVGID_21_" cx="96.1678" cy="99.2059" r="102.3919" gradientUnits="userSpaceOnUse">
			<stop  offset="0" style="stop-color:#D2DE26"/>
			<stop  offset="9.240635e-002" style="stop-color:#C8DA2B"/>
			<stop  offset="0.2525" style="stop-color:#ADD136"/>
			<stop  offset="0.4599" style="stop-color:#80C342"/>
			<stop  offset="0.5152" style="stop-color:#71BF44"/>
			<stop  offset="0.8727" style="stop-color:#2A8440"/>
			<stop  offset="1" style="stop-color:#389745"/>
		</radialGradient>
		<path fill="url(#SVGID_21_)" d="M63.1,13.3C63.1,13.3,63.1,13.3,63.1,13.3c-0.1-0.2-1.5-0.6-2.5-0.4c-0.9,0.2-0.6,0.8-0.4,0.9
			C60.8,14.3,63.1,13.3,63.1,13.3z"/>
		<radialGradient id="SVGID_22_" cx="96.2044" cy="99.1418" r="102.343" gradientUnits="userSpaceOnUse">
			<stop  offset="0" style="stop-color:#D2DE26"/>
			<stop  offset="9.240635e-002" style="stop-color:#C8DA2B"/>
			<stop  offset="0.2525" style="stop-color:#ADD136"/>
			<stop  offset="0.4599" style="stop-color:#80C342"/>
			<stop  offset="0.5152" style="stop-color:#71BF44"/>
			<stop  offset="0.8727" style="stop-color:#2A8440"/>
			<stop  offset="1" style="stop-color:#389745"/>
		</radialGradient>
		<path fill="url(#SVGID_22_)" d="M55.9,8.5c-0.3,0.1-0.8,0.3-0.9,0.4c0,0,0.1,0,0.1,0c0.5-0.1,0.9-0.1,0.9-0.1
			c0,0.2-0.3,0.2-0.3,0.3c0.1,0.1,0.8-0.2,0.9-0.3c0.3-0.1,1.2-0.9,1.2-1.1c-0.1,0-0.2,0.1-0.3,0.1c0.1-0.2,0.3-0.2,0.5-0.3
			c0,0,0,0-0.1,0c-0.8,0.3-1.9,0.7-2,0.8c0.2,0.1,0.3-0.1,0.5-0.1C56.4,8.3,56.4,8.3,55.9,8.5z"/>
		<radialGradient id="SVGID_23_" cx="96.1281" cy="99.1771" r="102.3439" gradientUnits="userSpaceOnUse">
			<stop  offset="0" style="stop-color:#D2DE26"/>
			<stop  offset="9.240635e-002" style="stop-color:#C8DA2B"/>
			<stop  offset="0.2525" style="stop-color:#ADD136"/>
			<stop  offset="0.4599" style="stop-color:#80C342"/>
			<stop  offset="0.5152" style="stop-color:#71BF44"/>
			<stop  offset="0.8727" style="stop-color:#2A8440"/>
			<stop  offset="1" style="stop-color:#389745"/>
		</radialGradient>
		<path fill="url(#SVGID_23_)" d="M52.1,12.7c-0.2,0.1-0.3,0.2,0,0.4c0.3,0.2,0.9,0,1.4-0.5c0.3-0.3,1-0.9,0.7-1c0,0-0.1,0-0.1,0
			C53.6,11.9,52.2,12.7,52.1,12.7z"/>
		<radialGradient id="SVGID_24_" cx="96.172" cy="99.2412" r="102.4268" gradientUnits="userSpaceOnUse">
			<stop  offset="0" style="stop-color:#D2DE26"/>
			<stop  offset="9.240635e-002" style="stop-color:#C8DA2B"/>
			<stop  offset="0.2525" style="stop-color:#ADD136"/>
			<stop  offset="0.4599" style="stop-color:#80C342"/>
			<stop  offset="0.5152" style="stop-color:#71BF44"/>
			<stop  offset="0.8727" style="stop-color:#2A8440"/>
			<stop  offset="1" style="stop-color:#389745"/>
		</radialGradient>
		<path fill="url(#SVGID_24_)" d="M60.8,8C60.8,8,60.8,8,60.8,8C60.8,7.9,60.7,8,60.8,8c-0.1,0-0.1,0-0.1,0
			c-0.4,0.1-0.8,0.3-1.2,0.4c-0.5,0.1-1,0.2-1.4,0.4C57.7,8.9,57.5,9,57.4,9c0.1,0,1.5-0.2,2.3-0.4c0.4-0.1,0.5-0.2,1-0.5
			C60.7,8,60.8,8,60.8,8z"/>
		<radialGradient id="SVGID_25_" cx="96.1886" cy="99.2572" r="102.4472" gradientUnits="userSpaceOnUse">
			<stop  offset="0" style="stop-color:#D2DE26"/>
			<stop  offset="9.240635e-002" style="stop-color:#C8DA2B"/>
			<stop  offset="0.2525" style="stop-color:#ADD136"/>
			<stop  offset="0.4599" style="stop-color:#80C342"/>
			<stop  offset="0.5152" style="stop-color:#71BF44"/>
			<stop  offset="0.8727" style="stop-color:#2A8440"/>
			<stop  offset="1" style="stop-color:#389745"/>
		</radialGradient>
		<path fill="url(#SVGID_25_)" d="M57.4,8.7C57.4,8.7,57.4,8.7,57.4,8.7c0.2,0,1.6-0.6,2-0.8c0.2-0.1,0.2-0.1,0.2-0.2
			c0-0.1-0.1,0-0.1-0.1c0,0,0-0.1,0-0.1c0,0,0,0,0,0c0,0,0,0-0.1,0c-0.1,0-0.1,0-0.2,0c-0.1,0-0.1,0.1-0.2,0.1
			c-0.3,0.2-0.5,0.6-0.9,0.7C57.6,8.4,57.5,8.5,57.4,8.7z"/>
		<radialGradient id="SVGID_26_" cx="96.1825" cy="99.123" r="102.3151" gradientUnits="userSpaceOnUse">
			<stop  offset="0" style="stop-color:#D2DE26"/>
			<stop  offset="9.240635e-002" style="stop-color:#C8DA2B"/>
			<stop  offset="0.2525" style="stop-color:#ADD136"/>
			<stop  offset="0.4599" style="stop-color:#80C342"/>
			<stop  offset="0.5152" style="stop-color:#71BF44"/>
			<stop  offset="0.8727" style="stop-color:#2A8440"/>
			<stop  offset="1" style="stop-color:#389745"/>
		</radialGradient>
		<path fill="url(#SVGID_26_)" d="M60.7,6.6c1-0.5,1-0.5,1-0.5c0,0-0.1,0-0.1,0c0,0-1,0.3-1.3,0.5c-0.3,0.2-0.2,0.3-0.2,0.3
			C60.1,6.8,60.4,6.7,60.7,6.6z"/>
		<radialGradient id="SVGID_27_" cx="96.1834" cy="99.1981" r="102.3875" gradientUnits="userSpaceOnUse">
			<stop  offset="0" style="stop-color:#D2DE26"/>
			<stop  offset="9.240635e-002" style="stop-color:#C8DA2B"/>
			<stop  offset="0.2525" style="stop-color:#ADD136"/>
			<stop  offset="0.4599" style="stop-color:#80C342"/>
			<stop  offset="0.5152" style="stop-color:#71BF44"/>
			<stop  offset="0.8727" style="stop-color:#2A8440"/>
			<stop  offset="1" style="stop-color:#389745"/>
		</radialGradient>
		<path fill="url(#SVGID_27_)" d="M62.8,6.1C63.3,6,63.4,5.9,63.5,6c0,0,0,0,0,0c-0.1,0.1-0.3,0.1-0.7,0.3c-1.2,0.4-1.5,0.5-1.5,0.5
			C61,7,61,7.3,61.1,7.4c0,0,0,0,0.8-0.2c0.3-0.1,0.6,0,0.9-0.1c0.7-0.3,1.3-0.7,2-1c0.4-0.2,0.9-0.2,1.3-0.5c0,0,0.1,0,0.1-0.1
			c0,0,0,0-0.3-0.1c0,0,0,0,0,0c0.1,0,0.1-0.1,0.2-0.1C66.7,5,66.7,5,66.7,4.9c-0.1,0-0.1,0-0.2,0c0.1-0.1,0.3-0.2,0.3-0.4
			c0.1-0.1,0.3-0.2,0.4-0.4c0,0-0.1,0-0.1,0c-0.7,0.2-3.3,1.2-3.6,1.3c0.1,0,0.3,0,0.4-0.1c-0.2,0.2-0.7,0.3-1,0.3
			c-0.8,0.2-1.2,0.6-1.2,0.6C61.9,6.4,62.7,6.1,62.8,6.1z"/>
		<radialGradient id="SVGID_28_" cx="96.168" cy="99.193" r="102.3774" gradientUnits="userSpaceOnUse">
			<stop  offset="0" style="stop-color:#D2DE26"/>
			<stop  offset="9.240635e-002" style="stop-color:#C8DA2B"/>
			<stop  offset="0.2525" style="stop-color:#ADD136"/>
			<stop  offset="0.4599" style="stop-color:#80C342"/>
			<stop  offset="0.5152" style="stop-color:#71BF44"/>
			<stop  offset="0.8727" style="stop-color:#2A8440"/>
			<stop  offset="1" style="stop-color:#389745"/>
		</radialGradient>
		<path fill="url(#SVGID_28_)" d="M54.6,12.8c0.1,0,7.3-0.7,9.2-2.7c0.5-0.5-0.8-0.6-0.8-0.6c-0.7,0-3.9,1.1-4.6,1.4
			c-0.6,0.2-1.1-0.3-0.9-0.5c0.1-0.1,0.2-0.1,0.4-0.2c1.2-0.3,0.6-0.7,0.5-0.7c-0.3,0-0.6,0.2-0.9,0.2c-0.3,0-0.7-0.1-1-0.1
			c-0.1,0-0.4,0.1-0.7,0.1c-0.2,0.1-0.8,0.7-0.7,0.8c0.1,0,0.2,0,0.4-0.1c0.3-0.1,0.8-0.3,0.9-0.2c0.2,0.1-0.4,0.9-0.4,0.9
			c-0.4,0.3-0.8,0.5-1.2,0.8C54.1,12.8,54.4,12.8,54.6,12.8z"/>
		<radialGradient id="SVGID_29_" cx="96.1722" cy="99.2793" r="102.3372" fx="198.1" fy="90.1336" gradientUnits="userSpaceOnUse">
			<stop  offset="0" style="stop-color:#2B3175"/>
			<stop  offset="0.105" style="stop-color:#293070"/>
			<stop  offset="0.287" style="stop-color:#222C61"/>
			<stop  offset="0.5152" style="stop-color:#14244B"/>
			<stop  offset="0.8727" style="stop-color:#2C3991"/>
			<stop  offset="1" style="stop-color:#293990"/>
		</radialGradient>
		<path fill="url(#SVGID_29_)" d="M199.7,102.4c-0.2-2.9-0.3-6.7-0.6-9.6c-0.1-0.9-0.2-1.7-0.4-2.4c-0.7-2.3-0.8-2.7-2.1-10.7
			c0,0,0,0.1,0.1,0.1c-3.3-11-3.3-11-3.4-11.5c0,0,0,0,0,0c-1.2-3.4-1.7-4.6-3.3-8l-3.5-6.9c-1-1.3-2.1-2.4-3.8-3.5
			c1.6,1,2.8,2.1,3.8,3.5c-1.4-2.2-3.1-5.2-4.6-7.4c-6.2-8.5-6.3-8.7-10.2-12.8l-4.1-4.2l0,0c-0.2-0.1-0.3-0.3-0.5-0.4
			c0.2,0.2,0.2,0.3,2,2.1c-0.3-0.2-0.6-0.4-0.9-0.6c0.5,0.9,1.3,1.4,2,2.1c0,0-0.1,0.1-0.2,0.1c-2.9-2.3-5.3-5.2-8.2-7.5
			c1.5,0.9,2.6,2.2,4.2,3c-0.4-0.7-4.8-4.5-7.7-6.2c-2.1-1.3-2.3-1.5-2.5-1.7c0.1,0,0.3,0.1,0.4,0.2c-0.2-0.2-0.4-0.3-0.9-0.6
			c0,0-0.1,0.1-0.2,0.1c-0.2-0.1-0.5-0.2-1.9-1.2c0.1,0,0.3,0.1,0.4,0.1c-0.2-0.6-2.8-1.7-3-1.8c0.1,0.3,0.1,0.3,0.5,0.8
			c-0.9-0.3-1.3-1.2-2.2-1.6c0.2,0.4,0.6,0.6,0.8,1c-0.3,0.7-0.3,0.7-0.3,1.1c0.1,0.6,2.1,4.3,2.2,4.3c1.5,2.4,1.5,3.2,1.5,3.3
			c-0.3,2.2-0.3,2.2-1.5,3c-0.4,0.3-0.4,0.5-0.2,1c0,0.1,3.2,7.6,6.2,6.2c1-0.4,0.5-2,0.2-2.8c0.2,0.2,5.6,5.5,6.5,7.1
			c0.5,0.8,0.9,1.5,1.7,1.5c0.2-0.3,0.2-2.4-0.3-3.3c-1.2-2.2-0.9-2.4-0.3-3c0-0.5,0-0.7-1.6-1.7c-1.1-0.7-1.1-0.7-2.5-3
			c-0.6-0.9,0.4-2-0.5-2.9c-2.1-2.2-2.1-2.2-2.2-2.3c0-0.1-0.1-0.2-0.1-0.3c0,0,0.1-0.1,0.1-0.2c0.8,0.3,3.4,2,3.6,2.6
			c-0.1,0-0.2,0-0.2,0c2.1,4.6,2.1,4.6,4,6.4c1.7,1.6,4.3,1.3,6,2.9c-0.3,0-0.5-0.2-0.8-0.3c0,0-0.1,0.1-0.2,0.1
			c0.1,0.2,0.2,0.4,0.4,0.6c-1-0.3-1.9-0.7-3-0.8c1.1,1.5,2.7,2.7,3.6,4.4c-1.1,0-1.2-1.7-2.4-1.6c0,0.1-0.1,0.1-0.1,0.2
			c0,0,1.3,2.5,1.5,2.6c0.2,0.2,1.1,1.4,1,1.9c-0.7-0.1-0.7-0.1-0.8,0c-0.1,0.2-0.1,0.4-0.2,0.7c0,0,0.1,0.1,0.1,0.2l0,0
			c-3.1-0.2-3.1-0.2-3.1,0.1c-0.1,0.1-0.3,0.2-0.4,0.3c-0.6-0.4-1.5-0.6-2.3-0.8l1.5,0.3c-0.3-0.2-0.9-0.7-2.2-0.6
			c-0.4,0-0.5,0-1.7-1.3c-0.9-1-1.9-2.4-1.8-3.6c0-0.5-0.7-2.6-1.3-2.7c-0.1,0-1.7,0-1.4,0.8c0.1,0.3,2.2,4,3.7,5.7
			c0.6,0.7,0.6,0.8,0.6,0.8c-0.1,0.1-0.1,0.1-0.5,0.2c-0.3,0.1-0.7,0.1-1,0.2c-0.1,0.1-0.2,0.3-0.3,0.4c-1.7,0-1.7,0-2.1,0.4
			c0.1,0.5,0.2,1.3,0.8,2.8c-0.1,0.1-0.2,0.3-0.3,0.5c-1.4,0-1.4,0-2.2,0.3c0,0.1,0,0.1,0.6,1.5c-0.3,0.2-0.8,0.5-1.2,0.6
			c0,0.3-0.1,0.8-0.2,1.1c-1.6-0.1-1.8-0.3-2.5-0.8c0.2,0.3,0.4,0.7,0.6,1c0,0.2-0.1,0.4-0.2,0.5c-0.3,0.1-0.8,0.3-1.1,0.4
			c-0.8-0.5-0.8-0.5-2-0.5c-0.1,0.1-0.2,0.3-0.2,0.5c0.3,0.3,0.7,0.6,1,0.9c-0.1,0.1-0.3,0.2-0.4,0.3c7.5,2.1,6.3,9.6,6.3,9.6
			c-3.5-0.2-6.8-1.3-10.3-1.6c0.2,0.3,0.4,0.7,0.7,0.9c0,0.1,0.4,9.4,1.6,9.7c-0.3,2.9-0.3,2.9-0.4,3.1c2.4-0.2,2.9-0.2,4,0
			c0.4,1.6,0.4,1.6,0.4,1.7l5.7-1.9c1.6-0.2,2-2.2,1.1-3.5c0.9-3.7,0.9-3.7,3.3-4.7c0-3,0-3,0.3-3.2c1.1-0.9,1.9,0.5,2.9,0.5
			c0.9-1.6,1.7-2.7,3.1-1.5c0.1,0.1,8,9.1,8.8,11.7c0.6,1.9,0.3,2-3,2.4c0.7,1.1,2.7,2.9,2.7,2.9c0.3-0.9-0.3-1.8-0.1-2.7
			c0.2,0,0.3,0,0.5,0.1c0.4-0.6,0.6-1.4,1-2c-0.5-1.7-0.5-1.7-0.5-2.4c0.2,0,0.4-0.1,0.5-0.1c0.2,0.3,0.5,0.6,0.7,0.9
			c-0.2-0.8-0.2-0.8-2.8-4c0-0.2,0.1-0.4,0.1-0.5c-1.3-0.6-2.3-1-5.6-7.9c0.2-0.3,0.5-0.5,0.8-0.6l7.6,8.9c0,0,0,0,2.3,6.5l2.4,5.5
			c0-0.3,0.1-0.7,0.1-1.1c0-1.3-0.5-2.5-0.8-3.8c-0.8-4.1-0.8-4.1-0.4-4.4c0.7,0.2,2.3,1.1,2.6,2.3c0.2-0.3,0.3-0.7,0.4-1
			c0.2,0,0.4,0,0.5,0c0.5-3.7-2.2-7-1.7-10.7c0.3-0.1,0.7-0.1,1,0c-0.1,0.1-0.2,0.3-0.2,0.5c0.5,0.5,0.7,0.7,1.2,1
			c0.2,0.7,0.2,0.7,0,1.7c0.5,0.5,0.7,1.3,1.1,1.9c1.8-1-0.9-2.9-0.4-4.4c0.8-0.2,0.9,0.1,1.2,0.7c-0.1,0.1-0.2,0.3-0.3,0.5
			c0.3,0.4,0.3,0.4,0.7,2.1c-0.1,0.1-0.2,0.3-0.3,0.4c1.3,3.2,4.2,5.7,4.1,9.5c-0.1,0.1-0.3,0.2-0.4,0.3c-1.6-1-1.5-4.5-4-3.8
			c0,0.3-0.2,0.7-0.4,0.9c-0.3-0.1-0.7-0.2-1-0.3c0.1,0.3,0.3,0.6,0.5,0.8c-0.6,0.5-1.4,0.2-2,0.5c-0.1,0.3-0.1,0.8-0.1,1.2
			c0.1,0,0.3,0.1,0.5,0.1c0.3,1.9,0.7,5.5,3.1,7.4c0.1-0.1,0.3-0.3,0.4-0.4c0-0.2,0-0.4,0-0.5c0.8,0.6,1,1.7,1.9,2.3
			c0.1-0.3,0.2-0.7,0.2-1c0.2,0.2,0.6,0.5,0.8,0.6c0.4,7.2,0.4,8.3-0.3,10.3c-1-0.1-1.2-0.3-1.5-1.3c-0.3,0-0.7,0.2-0.9,0.4
			c-3.5-0.3-3.1-5.3-6.7-5.3c-0.7,1.2-0.1,2.6-0.6,3.8c-0.1,0.1-0.3,0.1-0.5,0.2c-0.7-0.5-8.7-7.8-9.2-8.7c-0.2-0.3,0.1-0.8,0.2-1.1
			c0.4-0.7,0.4-0.7,0.1-5c-0.9-0.6-1-0.7-1.6-0.9c-0.7,0.5-0.7,0.5-3.6-0.1c-0.2,0.2-0.5,0.6-0.7,0.9c-3.8-1.5-6.8,2.7-10.5,1.4
			c-0.4,0-0.5,0-0.6,0c-1.1,0.2-1.4,0.3-2.6-1.1c-0.2-0.1-0.2-0.1-0.2-0.1c-0.1,0.1-0.4,0.3-0.5,0.4c-0.7,0.9-0.2,2.1-0.9,2.9
			c-0.9,1.1-2.5,1.1-3.3,2.2c-0.2,0.3-0.1,1-0.1,1.4c-0.2,4.5-0.2,4.5-1.5,5.1c-1.1,0.5-3,2-3.2,2.4c-0.7,1.1-5.7,9.8-5.7,9.8
			c-0.2,2.3,1.3,4.3,1.4,6.6c0,1.9-2.7,2.8-1.8,5c1.3,3.3,3.1,6.4,4.6,9.6c0.6,1.3,5.5,5.9,6.4,5.9c4.5-0.4,8.9-2.1,13.6-1.6
			c0.2,0,0.3,0.1,0.4,0.2c0.8,0.7,0.2,2,1.1,2.7c0.8,0.7,1.8,0.4,2.8,0.6c0.6,1.8,0.6,1.8-0.1,3.5c7.8,1.4,12.7,2.8,16.3,4.5
			c-3.5-1.7-8.6-3.1-16.3-4.5c-2.1,4.8-2.1,4.8-1.7,6.2c0.5,2.2,1.2,5.2-1.6,11.7c-1.3,3-3.7,5.2-5.4,8c-1.6,2.5-1.8,5.6-3.2,8.2
			c-5.7,10.1-5.8,10.3-6.7,11.2c-0.6,0.6-1,1-1.6,2.4c2.9,0.9,6.3-1.4,7.4-2.2l4.5-3.2l5.7-4.5c1.3-1.3,2.1-3.1,3.4-4.4
			c1.6-1.5,3.7-2.2,5.2-3.6c3.7-3.5,7.2-10.6,7.5-11.5c1.4-3.5,6.3-8.9,7.8-10.4c2.3-2.5,5.4-9.2,6.1-11.8c-0.6-0.2-0.6-0.2-1.6,0
			c-0.2-0.3-0.2-0.3,0.2-4.5c0.2-1.5-0.2-3.1-0.2-4.6c-0.1-4,0.7-8,0.3-12l-1.1-12.6c0.3,0.4,0.3,0.4,0.5,2.2c0.3-0.2,0.5-0.7,0.6-1
			c2.6,9.5-0.2,19,0.2,28.6c1-0.5,1-0.5,1.5-0.4c2.8-5.9,2.8-5.9,2.9-6.7c0,0.2-0.1,0.4-0.1,0.6c0.1-0.3,0.1-0.7,0.2-1l0.1-0.3
			l0.3-2.2l0,0c0.1-1,0.3-2.3,0.5-5.7c0,0.2,0,0.4,0,0.5C199.5,108.9,199.7,105.2,199.7,102.4z M199,113.4c-0.2-0.4-0.2-0.4-0.1-4
			c-0.1,1.1-0.1,1.1-0.2,1.6c-0.3-7.7-0.2-8.5,0-9.4c0.5,0.7,0.6,6.4,0.6,9.7C199.3,112.6,199.2,112.8,199,113.4z"/>
		<radialGradient id="SVGID_30_" cx="96.15" cy="99.1921" r="102.4009" gradientUnits="userSpaceOnUse">
			<stop  offset="0" style="stop-color:#D2DE26"/>
			<stop  offset="9.240635e-002" style="stop-color:#C8DA2B"/>
			<stop  offset="0.2525" style="stop-color:#ADD136"/>
			<stop  offset="0.4599" style="stop-color:#80C342"/>
			<stop  offset="0.5152" style="stop-color:#71BF44"/>
			<stop  offset="0.8727" style="stop-color:#2A8440"/>
			<stop  offset="1" style="stop-color:#389745"/>
		</radialGradient>
		<path fill="url(#SVGID_30_)" d="M196.8,79.5c0,0.1,0.1,0.3,0.1,0.4l0.5,2.3c0,0,0-0.1,0-0.1c0.2,1.4,0.5,2.7,0.7,4.1
			c-0.8-5.1-1.1-6.1-2.3-10.3c-0.2-0.7-0.4-1.3-0.6-1.8c1.2,4.1,1.3,4.3,1.8,6.5C197,80.2,196.9,79.9,196.8,79.5z"/>
		<radialGradient id="SVGID_31_" cx="96.2327" cy="99.1918" r="102.3196" gradientUnits="userSpaceOnUse">
			<stop  offset="0" style="stop-color:#D2DE26"/>
			<stop  offset="9.240635e-002" style="stop-color:#C8DA2B"/>
			<stop  offset="0.2525" style="stop-color:#ADD136"/>
			<stop  offset="0.4599" style="stop-color:#80C342"/>
			<stop  offset="0.5152" style="stop-color:#71BF44"/>
			<stop  offset="0.8727" style="stop-color:#2A8440"/>
			<stop  offset="1" style="stop-color:#389745"/>
		</radialGradient>
		<path fill="url(#SVGID_31_)" d="M195,73c0,0.1,0.1,0.3,0.2,0.4c-0.2-0.5-0.4-1-0.5-1.5c0.1,0.2,0.1,0.3,0.2,0.5l-1.2-3.6l0,0
			c-0.2-0.4-0.2-0.5-0.2-0.5c0.5,1.4,1.1,3.3,1.9,5.8C195.2,73.7,195.1,73.4,195,73z"/>
		<radialGradient id="SVGID_32_" cx="96.2042" cy="99.1932" r="102.3469" gradientUnits="userSpaceOnUse">
			<stop  offset="0" style="stop-color:#D2DE26"/>
			<stop  offset="9.240635e-002" style="stop-color:#C8DA2B"/>
			<stop  offset="0.2525" style="stop-color:#ADD136"/>
			<stop  offset="0.4599" style="stop-color:#80C342"/>
			<stop  offset="0.5152" style="stop-color:#71BF44"/>
			<stop  offset="0.8727" style="stop-color:#2A8440"/>
			<stop  offset="1" style="stop-color:#389745"/>
		</radialGradient>
		<path fill="url(#SVGID_32_)" d="M198.8,90.7c-0.2-1.5-0.4-3-0.7-4.4c0.2,1.1,0.4,2.5,0.6,4.1C198.8,90.4,198.8,90.6,198.8,90.7z"
			/>
		<radialGradient id="SVGID_33_" cx="96.1627" cy="99.1979" r="102.3914" gradientUnits="userSpaceOnUse">
			<stop  offset="0" style="stop-color:#D2DE26"/>
			<stop  offset="9.240635e-002" style="stop-color:#C8DA2B"/>
			<stop  offset="0.2525" style="stop-color:#ADD136"/>
			<stop  offset="0.4599" style="stop-color:#80C342"/>
			<stop  offset="0.5152" style="stop-color:#71BF44"/>
			<stop  offset="0.8727" style="stop-color:#2A8440"/>
			<stop  offset="1" style="stop-color:#389745"/>
		</radialGradient>
		<path fill="url(#SVGID_33_)" d="M139.9,42.1C139.9,42.1,139.8,42.1,139.9,42.1c-0.4,0.8-0.7,2.3-0.7,2.3c-0.1,0.6-0.1,0.9,0.1,1.1
			c0.3,0.4,1.9,0.2,3-0.5c0.3-0.2,0.5-0.4,0.8-0.5c0.4-0.2,0.8,0,1.1-0.4c0.2-0.2,0.1-0.7-0.2-1.5c-0.1-0.4-0.3-0.6-0.5-0.9
			c-0.3-0.4-0.3-0.6-0.1-1c0.1-0.2,0.2-0.5,0.1-0.9c-0.1-0.4-0.4-0.7-0.6-0.8c-0.1-0.1-0.3-0.2-0.4-0.2c-0.4-0.2-0.7-0.3-1.1-0.4
			c-0.3-0.1-0.4-0.2-0.4-0.3c0,0,0,0-0.1,0c-0.1,0-2.4,0.6-1,1.4c0.1,0.1,0.1,0.1,0.4,0.1c-0.1,0.1-0.1,0.1-0.2,0.1
			c-1,0.5-1.2,0.7-1.4,0.9c-0.2,0.2-0.3,0.4-0.3,0.9c0.1,0.2,0.1,0.4,0.5,0.6C139.2,42,139.6,42,139.9,42.1z"/>
		<radialGradient id="SVGID_34_" cx="96.1831" cy="99.1799" r="102.3737" gradientUnits="userSpaceOnUse">
			<stop  offset="0" style="stop-color:#D2DE26"/>
			<stop  offset="9.240635e-002" style="stop-color:#C8DA2B"/>
			<stop  offset="0.2525" style="stop-color:#ADD136"/>
			<stop  offset="0.4599" style="stop-color:#80C342"/>
			<stop  offset="0.5152" style="stop-color:#71BF44"/>
			<stop  offset="0.8727" style="stop-color:#2A8440"/>
			<stop  offset="1" style="stop-color:#389745"/>
		</radialGradient>
		<path fill="url(#SVGID_34_)" d="M43.1,14.7C43.1,14.7,43.1,14.7,43.1,14.7C43.1,14.7,43.1,14.7,43.1,14.7
			c-0.2,0.1-2.1,1.2-2.2,1.3C41.1,16,41.2,16,43.1,14.7z"/>
		<radialGradient id="SVGID_35_" cx="96.1613" cy="99.1942" r="102.3901" gradientUnits="userSpaceOnUse">
			<stop  offset="0" style="stop-color:#D2DE26"/>
			<stop  offset="9.240635e-002" style="stop-color:#C8DA2B"/>
			<stop  offset="0.2525" style="stop-color:#ADD136"/>
			<stop  offset="0.4599" style="stop-color:#80C342"/>
			<stop  offset="0.5152" style="stop-color:#71BF44"/>
			<stop  offset="0.8727" style="stop-color:#2A8440"/>
			<stop  offset="1" style="stop-color:#389745"/>
		</radialGradient>
		<path fill="url(#SVGID_35_)" d="M189,85.9C189,85.9,189,85.9,189,85.9C189,85.9,189,85.9,189,85.9c0-0.1-0.8-1.2-0.8-1.2
			c-0.2-0.2-0.3-0.2-0.4-0.2c-0.3-0.1-0.6-0.1-0.9-0.2c-0.5-0.2-0.5-0.2-0.5-0.2c-0.2,0-0.3,0.2-0.2,0.4
			C186.5,85.1,188.5,86.1,189,85.9z"/>
		<radialGradient id="SVGID_36_" cx="96.1832" cy="99.2032" r="102.3697" gradientUnits="userSpaceOnUse">
			<stop  offset="0" style="stop-color:#D2DE26"/>
			<stop  offset="9.240635e-002" style="stop-color:#C8DA2B"/>
			<stop  offset="0.2525" style="stop-color:#ADD136"/>
			<stop  offset="0.4599" style="stop-color:#80C342"/>
			<stop  offset="0.5152" style="stop-color:#71BF44"/>
			<stop  offset="0.8727" style="stop-color:#2A8440"/>
			<stop  offset="1" style="stop-color:#389745"/>
		</radialGradient>
		<path fill="url(#SVGID_36_)" d="M170.2,72c0.2,0.2,0.6,0.1,0.6,0.5c0.1,0.3-0.1,0.6,0,1c0.1,0.3,0.3,0.3,0.3,0.3
			c0.2,0.1,1.3-0.3,1.3-1.2c0-0.1,0-0.2,0-0.3c-0.1-0.4-0.2-0.7-0.2-1.1c-0.1-0.4,0-0.8-0.1-1.2c-0.1-0.6-0.3-0.7-0.5-0.7
			c-0.3,0-1.2,0.3-1.5,0.9C170,70.6,170,71.7,170.2,72z"/>
		<radialGradient id="SVGID_37_" cx="96.1959" cy="99.2181" r="102.3604" gradientUnits="userSpaceOnUse">
			<stop  offset="0" style="stop-color:#D2DE26"/>
			<stop  offset="9.240635e-002" style="stop-color:#C8DA2B"/>
			<stop  offset="0.2525" style="stop-color:#ADD136"/>
			<stop  offset="0.4599" style="stop-color:#80C342"/>
			<stop  offset="0.5152" style="stop-color:#71BF44"/>
			<stop  offset="0.8727" style="stop-color:#2A8440"/>
			<stop  offset="1" style="stop-color:#389745"/>
		</radialGradient>
		<path fill="url(#SVGID_37_)" d="M164.9,71.9c0,0,0.4-0.5,0.4-0.5c0-0.2-0.3-0.3-0.8-0.4c-0.6-0.1-1.5,0.1-1.1,0.5
			c0.2,0.2,1,0.6,1.3,0.5C164.7,72,164.8,71.9,164.9,71.9z"/>
		<radialGradient id="SVGID_38_" cx="96.271" cy="99.2048" r="102.2682" gradientUnits="userSpaceOnUse">
			<stop  offset="0" style="stop-color:#D2DE26"/>
			<stop  offset="9.240635e-002" style="stop-color:#C8DA2B"/>
			<stop  offset="0.2525" style="stop-color:#ADD136"/>
			<stop  offset="0.4599" style="stop-color:#80C342"/>
			<stop  offset="0.5152" style="stop-color:#71BF44"/>
			<stop  offset="0.8727" style="stop-color:#2A8440"/>
			<stop  offset="1" style="stop-color:#389745"/>
		</radialGradient>
		<path fill="url(#SVGID_38_)" d="M170.2,67c-0.1,0.1-0.2,0.2-0.1,0.3c0,0.1,0.1,0.2,0.2,0.3c0,0,0.8,1,0.9,1c0.2-0.1,0-1.6-0.1-2.3
			c0,0-0.3-1.2-0.4-1.3c0,0,0,0,0,0c0,0,0,0-0.1,0.1c0,0,0,0.1,0,0.1c-0.1,0.4,0.1,0.7,0.1,1.1C170.5,66.7,170.4,66.9,170.2,67z"/>
		<radialGradient id="SVGID_39_" cx="96.1087" cy="99.1892" r="102.4439" gradientUnits="userSpaceOnUse">
			<stop  offset="0" style="stop-color:#D2DE26"/>
			<stop  offset="9.240635e-002" style="stop-color:#C8DA2B"/>
			<stop  offset="0.2525" style="stop-color:#ADD136"/>
			<stop  offset="0.4599" style="stop-color:#80C342"/>
			<stop  offset="0.5152" style="stop-color:#71BF44"/>
			<stop  offset="0.8727" style="stop-color:#2A8440"/>
			<stop  offset="1" style="stop-color:#389745"/>
		</radialGradient>
		<path fill="url(#SVGID_39_)" d="M192.4,88.6c0,0,0.5,0.1,0.5,0c0.1-0.1,0.2-1.2,0.2-1.2c0,0,0,0,0-0.1c0-0.1,0-0.1-0.1-0.1
			c-0.1,0-0.3,0.1-0.4,0.1c-0.1,0-0.2,0-0.3-0.1c-0.1-0.1-0.2-0.2-0.4-0.3c-0.1,0-0.2,0-0.2,0c-0.1,0.2,0,1,0.3,1.4
			C192.3,88.5,192.4,88.6,192.4,88.6z"/>
		<radialGradient id="SVGID_40_" cx="96.1761" cy="99.1939" r="102.3825" gradientUnits="userSpaceOnUse">
			<stop  offset="0" style="stop-color:#D2DE26"/>
			<stop  offset="9.240635e-002" style="stop-color:#C8DA2B"/>
			<stop  offset="0.2525" style="stop-color:#ADD136"/>
			<stop  offset="0.4599" style="stop-color:#80C342"/>
			<stop  offset="0.5152" style="stop-color:#71BF44"/>
			<stop  offset="0.8727" style="stop-color:#2A8440"/>
			<stop  offset="1" style="stop-color:#389745"/>
		</radialGradient>
		<path fill="url(#SVGID_40_)" d="M32.7,22.5C32.7,22.5,32.7,22.5,32.7,22.5c0.1,0,0.1,0,0.2,0c0.6-0.4,1.1-0.9,1.7-1.3
			c1.1-0.7,2.2-1.4,3.3-2.1c0.2-0.2,0.2-0.2,0.6-0.8c0,0,0,0,0-0.1c-0.4,0.1-0.6,0.3-1,0.5c0.3-0.2,0.3-0.2,0.3-0.4c0,0,0,0,0,0
			c0,0-0.1,0-0.1,0c-1.3,0.5-1.3,0.5-7.1,5.3c-0.5,0.4-0.9,0.7-1.3,1.6c0,0,0,0,0.1,0C30.5,24.6,31.5,23.4,32.7,22.5z"/>
		<radialGradient id="SVGID_41_" cx="96.1653" cy="99.1944" r="102.3777" gradientUnits="userSpaceOnUse">
			<stop  offset="0" style="stop-color:#D2DE26"/>
			<stop  offset="9.240635e-002" style="stop-color:#C8DA2B"/>
			<stop  offset="0.2525" style="stop-color:#ADD136"/>
			<stop  offset="0.4599" style="stop-color:#80C342"/>
			<stop  offset="0.5152" style="stop-color:#71BF44"/>
			<stop  offset="0.8727" style="stop-color:#2A8440"/>
			<stop  offset="1" style="stop-color:#389745"/>
		</radialGradient>
		<path fill="url(#SVGID_41_)" d="M40.8,17c0.1,0,0.6-0.2,1.1-0.5c1.8-1,2.7-1.4,2.7-1.4c0.6-0.2,1.2-0.4,1.7-0.7
			c0.4-0.2,2.1-1.4,2.1-1.4c0.3-0.2,0.3-0.3,0.4-0.3c-0.2,0-0.5,0.1-0.5,0.1c-0.5,0.3-0.9,0.7-1.4,1c0.6-0.6,1.4-1.1,2-1.8
			c0,0,0,0-0.1,0c0,0-2.1,1.1-2.2,1.4c0,0.2-0.3,0.7-1.9,1.1c0,0,0,0,0,0c0,0,0.1-0.1,0.1-0.1c0,0,0,0,0,0c0.2-0.2,0.9-0.4,0.6-0.7
			c0,0-4.3,2.1-4.3,2.6c0,0,0,0,2-1.1c-0.2,0.3-0.6,0.5-0.9,0.7c0,0,0.1,0,0.6-0.3c0.1-0.1,0.4-0.2,0.9-0.4c-0.5,0.3-2,1.1-2.8,1.5
			C40.6,16.8,40.6,17,40.8,17z"/>
		<radialGradient id="SVGID_42_" cx="96.1784" cy="99.1875" r="102.3781" gradientUnits="userSpaceOnUse">
			<stop  offset="0" style="stop-color:#D2DE26"/>
			<stop  offset="9.240635e-002" style="stop-color:#C8DA2B"/>
			<stop  offset="0.2525" style="stop-color:#ADD136"/>
			<stop  offset="0.4599" style="stop-color:#80C342"/>
			<stop  offset="0.5152" style="stop-color:#71BF44"/>
			<stop  offset="0.8727" style="stop-color:#2A8440"/>
			<stop  offset="1" style="stop-color:#389745"/>
		</radialGradient>
		<path fill="url(#SVGID_42_)" d="M29,27.5c0.3,0.1,0.5-0.2,0.8-0.2c0,0,0,0,0,0.1c-0.1,0.4-0.5,0.6-0.7,0.9c0.3,0,3.2-1.3,4.8-2.6
			c0.5-0.4,0.7-0.6,1-0.7c0,0,0,0,0.1,0C35,25.3,35,25.3,35,25.4c0.1,0.1,1.2,0.4,1.2,0.4c1-0.3,1-0.3,2-1.4c0,0,0,0,0-0.1
			c-0.1,0-0.1,0-1,0.5c0.1-0.3,1.1-1.1,1.8-1.1c0.2,0,0.3,0,0.4-0.1c0,0,0.5-0.5,0.4-0.9c-0.5-0.3-0.8-0.9-0.5-1.2
			c0.2-0.3,2.4-3,2.4-3.2c-0.1-0.1-0.2-0.1-0.3-0.1c0,0,0-0.1,0-0.1c0,0,0,0,0,0c-1,0.9-1.7,2.1-2.9,2.7c-0.1-0.5,0.4-0.6,0.5-1
			c0,0-0.1,0-0.1-0.1c-0.5,0.2-0.9,0.5-1.3,0.6c0.1-0.2,0.4-0.4,0.5-0.6c0,0,0,0,0,0c-0.7,0.2-1.2,0.7-1.8,1c0.4-0.5,1-0.8,1.5-1.3
			c-0.4,0-5.6,3.4-5.5,4c0.1,0,0.1,0.1,0.2,0.1c-0.1,0.2-0.1,0.2-0.7,0.5c-1,0.6-1.1,0.7-1.1,0.9c0.1,0,0.1,0,0.2,0
			c0.6-0.1,1-0.5,1.6-0.6c0.4-0.1,0.8,0.1,1.2,0c-0.7,0.6-1.7,0.9-2.1,1C28.8,26.2,28.5,27.4,29,27.5z"/>
		<radialGradient id="SVGID_43_" cx="96.1393" cy="99.2664" r="102.436" gradientUnits="userSpaceOnUse">
			<stop  offset="0" style="stop-color:#D2DE26"/>
			<stop  offset="9.240635e-002" style="stop-color:#C8DA2B"/>
			<stop  offset="0.2525" style="stop-color:#ADD136"/>
			<stop  offset="0.4599" style="stop-color:#80C342"/>
			<stop  offset="0.5152" style="stop-color:#71BF44"/>
			<stop  offset="0.8727" style="stop-color:#2A8440"/>
			<stop  offset="1" style="stop-color:#389745"/>
		</radialGradient>
		<path fill="url(#SVGID_43_)" d="M52.8,32.4c0.1-0.2-0.1-0.2-0.3-0.2c0,0-0.8,0.1-1,0.4c-0.3,0.3-0.2,0.8-0.1,0.9
			C51.7,33.8,52.7,32.8,52.8,32.4z"/>
		<radialGradient id="SVGID_44_" cx="96.185" cy="99.189" r="102.3836" gradientUnits="userSpaceOnUse">
			<stop  offset="0" style="stop-color:#D2DE26"/>
			<stop  offset="9.240635e-002" style="stop-color:#C8DA2B"/>
			<stop  offset="0.2525" style="stop-color:#ADD136"/>
			<stop  offset="0.4599" style="stop-color:#80C342"/>
			<stop  offset="0.5152" style="stop-color:#71BF44"/>
			<stop  offset="0.8727" style="stop-color:#2A8440"/>
			<stop  offset="1" style="stop-color:#389745"/>
		</radialGradient>
		<path fill="url(#SVGID_44_)" d="M51.5,30.5c0,0,0.1-0.1,0.2-0.2c0.1-0.2,0-0.5-0.2-0.6c-0.2-0.2-0.4-0.3-0.6-0.4
			c-0.3-0.3-0.4-0.7-0.8-1c0,0-0.1-0.1-0.2-0.1c-0.3-0.2-0.7-0.2-1.1-0.4c-0.2-0.1-0.2-0.4-0.4-0.5c0,0-0.1,0-0.1,0
			c-0.3,0.1-1.3,1.6-1.4,1.6c-0.1,0.2-0.3,0.4-0.4,0.6l-1.1,1.8c0.7,0.1,0.7,0.1,0.7,0.4c0.1,0.4,0.1,0.4,0.1,0.4
			c0.1,0,0.3-0.2,0.6-0.5c0.5-0.4,1.4-1.2,2.4-1.3C50.1,30.4,50.8,30.8,51.5,30.5z"/>
		<radialGradient id="SVGID_45_" cx="96.1276" cy="99.1818" r="102.3361" gradientUnits="userSpaceOnUse">
			<stop  offset="0" style="stop-color:#D2DE26"/>
			<stop  offset="9.240635e-002" style="stop-color:#C8DA2B"/>
			<stop  offset="0.2525" style="stop-color:#ADD136"/>
			<stop  offset="0.4599" style="stop-color:#80C342"/>
			<stop  offset="0.5152" style="stop-color:#71BF44"/>
			<stop  offset="0.8727" style="stop-color:#2A8440"/>
			<stop  offset="1" style="stop-color:#389745"/>
		</radialGradient>
		<path fill="url(#SVGID_45_)" d="M49.7,31.8c0,0-1.5,0.3-1.9,0.7c-0.3,0.2-0.3,0.8-0.2,1c0.3,0.2,2.1-0.9,2.5-1.4
			C50.1,31.9,50.2,31.7,49.7,31.8z"/>
		<radialGradient id="SVGID_46_" cx="96.2047" cy="99.1882" r="102.4445" gradientUnits="userSpaceOnUse">
			<stop  offset="0" style="stop-color:#D2DE26"/>
			<stop  offset="9.240635e-002" style="stop-color:#C8DA2B"/>
			<stop  offset="0.2525" style="stop-color:#ADD136"/>
			<stop  offset="0.4599" style="stop-color:#80C342"/>
			<stop  offset="0.5152" style="stop-color:#71BF44"/>
			<stop  offset="0.8727" style="stop-color:#2A8440"/>
			<stop  offset="1" style="stop-color:#389745"/>
		</radialGradient>
		<path fill="url(#SVGID_46_)" d="M45.9,113.7c-0.6,0.2-0.2,1.1,0.1,1.2c0.2,0.1,1.7,0.4,1.6-0.2C47.6,114.3,46.6,113.6,45.9,113.7z
			"/>
		<radialGradient id="SVGID_47_" cx="96.1491" cy="99.3758" r="102.5792" gradientUnits="userSpaceOnUse">
			<stop  offset="0" style="stop-color:#D2DE26"/>
			<stop  offset="9.240635e-002" style="stop-color:#C8DA2B"/>
			<stop  offset="0.2525" style="stop-color:#ADD136"/>
			<stop  offset="0.4599" style="stop-color:#80C342"/>
			<stop  offset="0.5152" style="stop-color:#71BF44"/>
			<stop  offset="0.8727" style="stop-color:#2A8440"/>
			<stop  offset="1" style="stop-color:#389745"/>
		</radialGradient>
		<path fill="url(#SVGID_47_)" d="M146.6,41.7c-0.1,0-0.1,0.1-0.1,0.2l0.7,0.1C146.8,41.7,146.7,41.7,146.6,41.7z"/>
		<radialGradient id="SVGID_48_" cx="96.1716" cy="99.1989" r="102.3888" gradientUnits="userSpaceOnUse">
			<stop  offset="0" style="stop-color:#D2DE26"/>
			<stop  offset="9.240635e-002" style="stop-color:#C8DA2B"/>
			<stop  offset="0.2525" style="stop-color:#ADD136"/>
			<stop  offset="0.4599" style="stop-color:#80C342"/>
			<stop  offset="0.5152" style="stop-color:#71BF44"/>
			<stop  offset="0.8727" style="stop-color:#2A8440"/>
			<stop  offset="1" style="stop-color:#389745"/>
		</radialGradient>
		<path fill="url(#SVGID_48_)" d="M79,49.1c0.7-0.9,1-1.4,0.9-1.7c0,0-0.1,0-0.1,0c-0.4,0.1-1.3,0.9-2.1,1.9
			c-0.9,1.1-1.5,2.4-2.4,3.6c-0.5,0.6-1.1,1-1.6,1.7c-0.2,0.2,0,0.3,0,0.3c0.1,0.1,0.1,0.1,2.8,0.3c1.5,0.1,2.7,0.3,3.9,0.6
			c0.1,0,0.3,0.1,0.5,0.1c0.4,0,0.9-0.4,1.3,0c0.2,0.2,0.2,0.6,0.2,0.9c0,0.3,0.2,0.3,0.2,0.3c0.4-0.1,1-0.9,1-1.6
			c0.1-1.1-0.8-2.9-1.6-3.8c-0.4-0.5-0.4-0.5-2-0.1c-0.5,0.1-0.6,0-0.7-0.4c-0.2-0.8-0.4-0.9-0.7-1c-0.2-0.1-0.2-0.1-0.1-0.3
			C78.6,49.5,78.8,49.2,79,49.1z"/>
		<radialGradient id="SVGID_49_" cx="96.1749" cy="99.1921" r="102.3747" gradientUnits="userSpaceOnUse">
			<stop  offset="0" style="stop-color:#D2DE26"/>
			<stop  offset="9.240635e-002" style="stop-color:#C8DA2B"/>
			<stop  offset="0.2525" style="stop-color:#ADD136"/>
			<stop  offset="0.4599" style="stop-color:#80C342"/>
			<stop  offset="0.5152" style="stop-color:#71BF44"/>
			<stop  offset="0.8727" style="stop-color:#2A8440"/>
			<stop  offset="1" style="stop-color:#389745"/>
		</radialGradient>
		<path fill="url(#SVGID_49_)" d="M141.8,35c0.1,0.5-0.3,1.1-0.1,1.6c0.2,0.1,0.5,0,1.3-0.5c0.3-0.2,0.5-0.4,0.7-0.3
			c0.8,0.4-0.1,1.3,0.1,1.9c0.5,1.2,1.2,1.4,2,1.6c1.2,0.3,1.4,0.4,1.6,0.5c0,0.2-0.1,0.4,0,0.6c0.3,0.6,0.9,1,1.2,1.6
			c0.2,0.6-0.6,0.3-1.2,0c-0.2-0.1-0.2-0.1-0.9-0.2c0.3,0.8,1.2,1.2,1.4,2.1c0.1,0.5-0.3,0.7-1,1c-0.2,0.1-0.4,0.2-0.3,0.4
			c0,0.1,0.3,0.4,1.8,0.4c0.6,0,2-0.1,2,0.4c0,0.4-0.3,0.4-0.7,0.4c-0.4,0-0.6,0.1-0.8,0.3c-0.3,0.3-0.4,0.8-0.7,1.1
			c-0.4,0.4-0.8,0.6-1.2,1c0,0,0,0.1,0,0.1c0.2,0,0.2,0,3.1-0.3c1.5-0.2,2.9-0.1,4.4-0.3c0,0,0,0,0.1,0l2.5-0.8c0,0,0-0.1,0-0.1
			c-0.5-0.5-1.2-0.1-1.7-0.3c-0.3-0.8,0.4-1.4,0.1-2.2c-0.5-1.3-1-1.3-1.5-1.3c-1,0.1-1.6-1.3-1.6-1.3c0,0,0,0,0-0.1
			c0.1,0,0.1,0,0.8,0.1c0.3,0.1,0.8,0.3,0.8,0.1c0,0,0,0,0,0c0-0.1-0.1-0.2-0.4-0.4c-1.2-0.9-2.7-1.4-3.7-2.4
			c-0.5-0.5-0.9-1.2-1.5-1.6c-1.1-0.7-2.1-0.8-2.6-0.9c0,0,0,0,0,0c0.6-0.6,1.5-3.4-0.2-3.4c-0.3,0-0.7,0-0.9,0.1
			c-1.1,0.1-1.3,0.2-1.3-0.1c0-0.6,1-1.6,0.2-1.7c0,0-2.1,0-2.4,0.8c0,0.1,0,0.2,0,0.3C141.3,33.8,141.7,34.4,141.8,35z"/>
		<radialGradient id="SVGID_50_" cx="96.2293" cy="99.1775" r="102.4297" gradientUnits="userSpaceOnUse">
			<stop  offset="0" style="stop-color:#D2DE26"/>
			<stop  offset="9.240635e-002" style="stop-color:#C8DA2B"/>
			<stop  offset="0.2525" style="stop-color:#ADD136"/>
			<stop  offset="0.4599" style="stop-color:#80C342"/>
			<stop  offset="0.5152" style="stop-color:#71BF44"/>
			<stop  offset="0.8727" style="stop-color:#2A8440"/>
			<stop  offset="1" style="stop-color:#389745"/>
		</radialGradient>
		<path fill="url(#SVGID_50_)" d="M2.3,62.6c0.3-0.6,0.4-1.3,0.7-2c0.2-0.4,0.3-0.8,0.5-1.1c0,0,0-0.1,0-0.1c0,0,0.1-0.4-0.1-0.3
			c0,0-0.1,0-0.1,0C2.7,59.6,2.1,62.5,2.3,62.6C2.2,62.7,2.2,62.7,2.3,62.6z"/>
		<radialGradient id="SVGID_51_" cx="96.1726" cy="99.2098" r="102.3957" gradientUnits="userSpaceOnUse">
			<stop  offset="0" style="stop-color:#D2DE26"/>
			<stop  offset="9.240635e-002" style="stop-color:#C8DA2B"/>
			<stop  offset="0.2525" style="stop-color:#ADD136"/>
			<stop  offset="0.4599" style="stop-color:#80C342"/>
			<stop  offset="0.5152" style="stop-color:#71BF44"/>
			<stop  offset="0.8727" style="stop-color:#2A8440"/>
			<stop  offset="1" style="stop-color:#389745"/>
		</radialGradient>
		<path fill="url(#SVGID_51_)" d="M128,21c0,0,0-0.1,0-0.1c-0.1-0.2-0.5-0.6-0.9-0.8c-0.1,0-0.2-0.1-0.2-0.1c-0.6-0.2-1.3,0-1.9-0.3
			c-0.4-0.2-0.7-0.6-1.3-0.6c-0.6,0.1-1.1,0.4-1.7,0.5c-0.6,0.1-1.2,0.1-1.7,0.3c-0.4,0.1-0.1,0.6-0.4,0.7c-0.3,0.2-0.6-0.2-0.9,0
			c0,0-0.1,0.1-0.2,0.1c-0.1,0.5,0.3,1.1-0.2,1.5c-0.2-0.1-1.5-1.1-1.7-1.5c-0.5-0.9-2.5-1.5-3.1-1c0.2,0.5,0.7,0.4,1,0.7
			c-0.2,0.7-1,0.6-1.3,1c0.2,0.1,0.8,0,1.2,0c0.6-0.1,2.6,0.6,1.5,1.5c0.5,0.6,1.1,0.1,1.7,0.2c0.6,0.2,0.6,0.4,0.6,0.9
			c0.1,0.1,0.2,0.2,1.4,0c0.7-0.1,1-0.1,1.2-0.1c0.5,0,1,0.3,1.6,0.3c0.1,0,0.2,0,0.2,0c0.2,0,0.5,0,1.9-0.4
			c1.3-0.3,3.4-1.8,3.3-2.3c-0.1-0.3-0.3-0.5-0.4-0.7C127.8,21,127.8,21,128,21z"/>
		<radialGradient id="SVGID_52_" cx="96.1681" cy="99.1952" r="102.3709" gradientUnits="userSpaceOnUse">
			<stop  offset="0" style="stop-color:#D2DE26"/>
			<stop  offset="9.240635e-002" style="stop-color:#C8DA2B"/>
			<stop  offset="0.2525" style="stop-color:#ADD136"/>
			<stop  offset="0.4599" style="stop-color:#80C342"/>
			<stop  offset="0.5152" style="stop-color:#71BF44"/>
			<stop  offset="0.8727" style="stop-color:#2A8440"/>
			<stop  offset="1" style="stop-color:#389745"/>
		</radialGradient>
		<path fill="url(#SVGID_52_)" d="M47.7,111.3c0.6,0.8,4.3,1,4.3,0.6c0-0.2-4.7-5.7-4.7-5.7c-0.5-0.3-2-1.4-4.7-0.8
			c-1.5,0.5-2.6,1.5-2.6,1.6c0.2,0.2,1.4,0,2.3-0.5c1.4-0.8,2.3-0.3,2.4-0.1c-0.1,0.1-0.3,0.3-0.7,0.1c0,0,0,0,0,0
			c0.1,0.7,1.2,0.9,1.9,1.1c1.3,0.3,1.4,0.6,1.7,1.5c0.1,0.4,0.2,0.7,0.5,1c0.2,0.2,0.3,0.4,0.3,0.6C48.5,111.1,48,111.1,47.7,111.3
			z"/>
		<radialGradient id="SVGID_53_" cx="96.1588" cy="99.1985" r="102.3486" gradientUnits="userSpaceOnUse">
			<stop  offset="0" style="stop-color:#D2DE26"/>
			<stop  offset="9.240635e-002" style="stop-color:#C8DA2B"/>
			<stop  offset="0.2525" style="stop-color:#ADD136"/>
			<stop  offset="0.4599" style="stop-color:#80C342"/>
			<stop  offset="0.5152" style="stop-color:#71BF44"/>
			<stop  offset="0.8727" style="stop-color:#2A8440"/>
			<stop  offset="1" style="stop-color:#389745"/>
		</radialGradient>
		<path fill="url(#SVGID_53_)" d="M53.6,115.8c0.4,0.2,0.1,0.9,0.6,1c0.9,0.1,0.8-1.2,1.6-1.3c0.1,0,0.2,0,0.5,0
			c1.4,0.2,3.9,0.3,3.9,0.3c0.1,0,0.2,0,0.2-0.2c0-0.4-0.3-0.8-0.2-1.2c0.3-1.3-6.5-1.9-7-1.9c-0.1,0-0.1,0-0.2,0.1
			c0,0.1,0,0.1,0.1,0.2c1,0.9,0.7,2,0.6,2.1c-0.1,0.1-0.7,0-1.4-0.1c-1.4-0.2-1.5-0.2-1.6-0.2c0,0,0,0.1,0,0.1
			C51.7,115.4,52.8,115.4,53.6,115.8z"/>
		<radialGradient id="SVGID_54_" cx="96.1687" cy="99.1859" r="102.3652" gradientUnits="userSpaceOnUse">
			<stop  offset="0" style="stop-color:#D2DE26"/>
			<stop  offset="9.240635e-002" style="stop-color:#C8DA2B"/>
			<stop  offset="0.2525" style="stop-color:#ADD136"/>
			<stop  offset="0.4599" style="stop-color:#80C342"/>
			<stop  offset="0.5152" style="stop-color:#71BF44"/>
			<stop  offset="0.8727" style="stop-color:#2A8440"/>
			<stop  offset="1" style="stop-color:#389745"/>
		</radialGradient>
		<path fill="url(#SVGID_54_)" d="M67.5,52c-0.6,0.2,0.8,0.9,1,1c1.8,0.8,2.4-0.1,2.4-0.1C71.1,52.4,68.1,51.9,67.5,52z"/>
		<radialGradient id="SVGID_55_" cx="96.1717" cy="99.1929" r="102.3788" gradientUnits="userSpaceOnUse">
			<stop  offset="0" style="stop-color:#D2DE26"/>
			<stop  offset="9.240635e-002" style="stop-color:#C8DA2B"/>
			<stop  offset="0.2525" style="stop-color:#ADD136"/>
			<stop  offset="0.4599" style="stop-color:#80C342"/>
			<stop  offset="0.5152" style="stop-color:#71BF44"/>
			<stop  offset="0.8727" style="stop-color:#2A8440"/>
			<stop  offset="1" style="stop-color:#389745"/>
		</radialGradient>
		<path fill="url(#SVGID_55_)" d="M178.5,162.5c-1.9,2.5-2,2.5-3.3,3c-1,0.4-1.4,0.8-2.9,3.1c-0.8,1.1-1.1,1.4-1.8,2
			c-2.4,1.8-5.5,5.9-5.6,6.3c0.9,0,0.9,0,4.1-3.1c2.7-2.5,5-5.4,7.5-8c0,0.1,0,0.1-0.2,0.4c0.1-0.1,0.1-0.1,0.3-0.4
			c0.6-0.8,2.4-3.2,2.7-4.1c0,0,0,0-0.1,0C179,161.9,179,161.9,178.5,162.5z"/>
		<radialGradient id="SVGID_56_" cx="96.1707" cy="99.1929" r="102.38" fx="197.9982" fy="88.5706" gradientUnits="userSpaceOnUse">
			<stop  offset="0" style="stop-color:#2C2D4B"/>
			<stop  offset="0.1239" style="stop-color:#292A46"/>
			<stop  offset="0.3376" style="stop-color:#212139"/>
			<stop  offset="0.5152" style="stop-color:#17172B"/>
			<stop  offset="1" style="stop-color:#2E3370"/>
		</radialGradient>
		<path fill="url(#SVGID_56_)" d="M112.7,144.1c-0.1-0.7,0.8-1.7-0.1-2.2c-0.7-0.3-1.3,0.2-1.9,0c-2.1-0.5-3.5-2.3-5.5-2.9
			c-3-0.9-6.1-1.5-9.1-2.2c-1.8-0.6-1.9-2.7-3-3.9c-1.9-1.2-3.2-3.2-5.2-4.3c-2.5-1.4-5.6-1-8.2-2.5c-2-1.2-3.3-3.2-5.4-4.3
			c-0.3-0.1-0.8-0.3-1.1-0.3c-10.3-1.5-18.4-2.8-19.3,5.4c-3.1-2.2-10.9,1.3-10.2-3.8c0.4-3.1-0.9-5.3-0.9-5.3
			c-2.4-1.2-4.8,0-7.2-0.1c0.8-2.6,0.8-2.6,0.2-3.9c1-2.4,1-2.4,1.4-4.6c-0.5-0.4-4.5-3.6-5.3,5.4c-1.4-0.1-2.3,1.8-3.9,0.9
			c-3.7-2.1-5-4.8-5.4-6.2c-0.5-1.8,1-3.1,0.9-4.8c0-1.1-1.4-1.6-1.1-2.8c0.5-1.6,3.4-4.5,4.1-5c1.2-0.9,5.9,0.1,6,0.1
			c0.1-0.1,0.3-0.2,0.4-0.3c-0.4-0.4-0.9-0.5-1.3-0.9c0-0.2,0.1-0.4,0.1-0.5c0.9-0.5,8.4-1.2,8.4-1.2c3.2,1.7,1.3,6.2,4.3,8
			c3.6-3.8-2.2-7.2-1.6-11.1c0.7-4,4.7-4.9,6.9-7.5c0,0-0.1,0-0.1,0c-0.1-0.1-0.2-0.3-0.3-0.4c0-0.1,0-0.3,0.1-0.5
			c0.1,0,0.3-0.1,0.5-0.1c0-0.2,0-0.4,0.1-0.6c-0.1-0.1-0.3-0.1-0.5-0.2l0.7-7.3c0.1,1.1,0.1,4.4,0.1,4.4c0.3-0.2,0.3-0.2,0.7-5
			c0.3,0.5,0.7,0.9,0.8,1.5c0.7-1.1,0.4-2.6,1.4-3.6c0,0,4.3-2.4,4.6-2.3c0.4-3.8,0.4-3.8,2.5-5.8c0.4,0,0.4,0,6.5-3.5
			c-0.1,0.1-0.1,0.3-0.2,0.4c0.3,0.1,0.8,0.2,1.1,0.2c0,0.2,0,0.4,0,0.5c-3.6,2.5-3.6,2.5-3.6,3.3c2.4,0,9.8-4.3,8.5-7.6
			c-1,0.7-1.1,1.9-1.7,2.9c-0.8-0.2-1.4-0.4-2-0.6c0.5-0.1,0.9-0.7,0.9-0.7c0,0,0,0,0,0c0,0,0,0,0,0c0,0-0.1,0-0.2,0
			c-1,0.1-1.5-0.1-1.7-0.2c-0.5-0.2-0.5-0.5-0.5-0.9c0-0.2,0-0.2,0-0.2c0,0,0,0,0,0c0,0.1-0.3,0.8-0.1,1.4c-0.9-0.4-1.1-0.9-1.4-2
			c-0.9-0.3-0.9-0.4-1.3-0.8c1.3-0.4,2.2-0.6,2.5-1.9c-0.7-0.7-0.7-0.7-9.9,5.1c6.4-6.6,6.4-6.6,12.9-8.6c1.5,1,8.2-2.3,9.2-4.2
			c-0.3-0.8-0.3-0.8,0.2-2c-0.1-0.1-0.2-0.3-0.3-0.5c-0.5-0.1-1.1-0.2-1.6-0.3c-0.5,0-0.5,0-0.5,0c-0.3,0-1.3,0.1-3.1,1.3
			c-0.1-0.1-0.1-0.3-0.2-0.4c0.5-0.8,0.8-0.9,2.8-1.6c-3.8,0.3-7.6,0.7-11.7,1.1c3.8-0.4,7.1-0.7,11.7-1.1c0.1-0.1,0.3-0.1,0.3-0.2
			c0.1-0.2-1.5-1.6-3.4-1.1c-0.4,0.1-0.4,0.1-0.7,0c-0.1-0.4,0.2-0.8-0.1-1.2c-0.4-0.5-1.1-0.4-1.5-0.9c-0.2-0.2,0-0.4,0.2-0.8
			c0.4-0.6,0.4-0.6-0.5-2.3c-2.4-4.2-2.4-4.2-3.5-2c-0.2,0.3,0.3,0.7,0,1c-0.3,0.4-1,0-1.3,0.5c-0.7,1-0.7,1-0.9,1.1
			c-1.3,0.4-2.2-0.7-3.3-0.9c-0.2-0.3,0.2-2.6,0.9-3.2c-0.7-0.2-1.3,0.1-2-0.1c-0.2-0.1-0.2-0.2-0.4-0.5c-0.1-0.1-0.2-0.4-1.8-0.9
			c-0.4-0.1-0.4-0.1-0.7-0.1c-1.5,0.4-3.1,0.1-4.5,0.7c0.3,1.4-1.4,2.6-0.3,4c-0.2,0.7-1.1,0.9-1.1,1.7c-0.1,0.9,0.9,1.4,0.9,2.3
			c0,0,0.1,3.6-2,4c-0.4,0.1-1.5,0.4-1.2,1.2c-0.1,0.1-0.1,0.2-0.6,0.5c-0.5,2,0.8,4.6-1.5,6.2c-0.7-1.1-2-1.4-3-2.2
			c0.5-1.6,0.3-2.2,0-2.9c0.2-0.1,0.4-0.3,0.6-0.5c0-0.1,0-0.3,0-0.3c-0.2,0-0.4,0-0.6,0c-1-0.9-2.1-0.1-3.1-0.4
			c-1.1-0.3-1.6-1.3-2.6-1.7c-0.2-0.1-0.4-0.1-0.6-0.2c-0.9-0.2-1.6,0.5-2.4,0.7c-0.3-0.2-0.3-0.2-0.6-2.3c-0.1-0.7-0.1-0.7-1.8-0.9
			c-0.4-2.2,5-6.3,7.4-8c-0.3-0.7-1-0.4-1.5-0.7c4.5-0.8,4.5-0.8,7.1-3.5c-1.7,0.3-2.1,0.4-3.5-0.4c1.7-0.6,3.8,0.5,5.1-1.5
			c-0.1-0.1-0.3-0.2-0.5-0.2c0,0,0.8-1,1.7-0.5c2.9-1.1,2.9-1.1,3.7-1.7c0.2-0.1,0.4-0.4,0.5-0.6c0.3-0.5-0.2-1.1,0.1-1.6
			c0.3-0.5,0.9-0.4,1.2-0.8c0.2-0.2,0.2-0.6,0.4-0.8c0,0-2.5-2.5-3.3,1c-1.5,0.9-2.6,4.4-4.5,2.8c0.2-1.1,2.4-1.8,1.3-2.9
			c-1.2,0.4-1.6,1.6-2.5,2.4c-0.2-0.6,1-2.2,1-2.2c-0.1,0-0.1,0-1.1-0.1c1.8-2.9,1.8-2.9,1.8-3.3c-0.1-0.1-0.2-0.1-0.3-0.2
			c1-1.6,1-1.6,5.9-4.5c-0.3,0-0.3,0-0.9,0.1c-3.9,0.9-9.1,8.2-9.2,8.3c0,0.1,0.1,0.2,0.1,0.3c0.4,0,0.8-0.1,1.2-0.1
			c0,0.1,0,0.2,0.1,0.3c-0.9,0.4-1,0.5-1.4,0.9c0,0.2,0,0.2,0,0.2h0c0.1,0,0.2,0,0.2,0.1c-0.8,1.4-2.6,1.9-3.3,3.5
			c-0.6-0.7-0.6-0.7,0.6-1.9c-0.7-0.2-0.7-0.2-2.9,1.6c-0.1,0.1-0.9,0.6-3.6,0.4c-0.2-0.3-0.1-0.6-0.3-0.9c-2.2,0.6-2.9,1.8-4.2,4.4
			c-0.2-0.6,0.3-1.2,0.3-1.8c-1.2,0.2-2.2,1.2-3.5,1c0.5-0.5,1.4-0.7,1.6-1.6c-0.1,0-0.2-0.1-0.2-0.1c-0.3,0.2-0.3,0.2-1.2,0.1
			c-0.1-0.1-0.2-0.3-0.4-0.4c-0.6,0.1-0.9,0.6-1.4,1c0.1-0.2,0.2-0.4,0.3-0.5c-0.3,0.2-0.3,0.2-0.9,0.7c0.3-0.6,0.3-0.6,1.1-1.6
			c-1.4,1.3-1.4,1.3-4.1,3.6c0,0,0,0,0,0c0.8-0.8,1.7-1.5,2.6-2.3c0,0-1.9,1.4-4.2,3.8c0.1-0.1,0.2-0.3,0.3-0.5
			c-1.5,1.6-3.4,3.8-4.8,5.4c-6.3,8.2-6.4,8.3-9.2,12.9l0,0c0-0.1,0.1-0.1,0.1-0.2c-1.9,4.7-1.9,4.7-2.1,6c-0.1,0.4-0.3,0.9-0.4,1.2
			c0.1,0.1,0.2,0.3,0.3,0.5c-0.6,1.9-0.6,1.9-1.2,5.1c-0.2,0.8,0,1.5,0.3,2.2C3.3,65,3.2,65,3,65c-0.1,0-0.2,0-0.2-0.1
			c0,0,0,0-0.1-0.3c0-0.1-0.1-0.5-0.2-0.5l0,0c0,0-0.2,1.1,0,2c0.2,0.7,0.7,0.6,0.8,0.6c0.1,0,0.3-0.2,0.3-0.4
			c0.1-0.2,0.1-0.4,0.1-0.5c0-0.1,0-0.2,0-0.4c0,0,0,0,0,0c0.3,0.7,0.5,1.4,0.5,2.2c-0.3-0.1-0.6-0.3-0.9-0.5
			C0.1,71.2-1,90.7,1.1,94.4c0.3,0,0.3,0,4.8,9.3c-0.3,0-0.8,0-1.1,0c0.5,1.1,4.5,6.3,4.6,6.4c0.4-0.5,0.7-1.1-1.1-3.7
			c-0.8-1.2-1.8-2.5-3.4-9c2,1.5,2.2,2.4,2.5,3.6c0.2,0.9,0.4,1.8,0.8,2.5c0.8,1.3,1.8,2.5,2.7,3.7c1.1,1.6,3.1,2.6,4,4.4
			c0.8,1.5,0.4,3.4,2,4.5c0.2,0.2,0.6,0.3,0.8,0.4c0.4,0.2,1,0.5,1.5,0.6c1.6,0.4,3.3,0.7,4.9,1.1c1.7,0.4,3.4-0.6,5.1,0.4
			c3.7,2.1,3.7,2.1,5,2.3c0.2,0,0.5,0.1,0.7,0.1c5.9,0.8,8.3,8.1,14.7,7.8c2.9-4.8,4.6,1,5.2,3.6c0.2,0.8,0.2,0.8-1.4,4.4
			c0,0.1-1.6,6.4-0.9,7.6c0.1,0.2,0.2,0.5,0.4,0.6c2.1,3.1,10.7,11.7,10.8,11.7c2.1,1.8,5,2.2,7.2,3.8c1.7,1.2,3,3.6,3.6,6.7
			c0,0.1,3.3,15,9.1,23.1c7.3,10.3,14.4,9.1,14.4,9.1c-6.8-3.5-6.8-3.5-6.2-6.4c-0.9-1-0.9-1-2.7-5.9c0.3-0.1,0.3-0.1,1.6,0
			c0-0.1,0-0.1-1.6-2.3c1.2-1.1,1.2-1.1,1.1-1.9c0.1-0.1,0.2-0.1,0.3-0.2c2.1,0.6,2.8-1.1,2.3-1.9L92,180c4.8-0.1,6.9-11.8,6.9-11.9
			c0.7-1.5,2.5-2.4,3.3-2.7c1.7-0.7,1.7-2.7,2.9-3.8c0.5-0.5,1-0.5,1.4-0.5c0.7,0.1,0.8,0.1,0.9-0.6c0.2-1.5,0.1-2.9,0.1-4.4
			c0-0.8-0.4-1.7,0.1-2.5c0.6-0.9,0.9-1.3,0.4-1.9c-0.1-0.1-0.2-0.3-0.2-0.4c4-1.5,5.5-5.8,5.5-5.9c0,0,0-0.1,0-0.2
			C113.2,145,112.8,144.6,112.7,144.1z M11.8,53.2c1.4-0.5,2.9-0.9,4.5-1.3C14.8,52.3,13.3,52.8,11.8,53.2z M57.5,136.2
			c1.8-0.2,3.7-0.5,5.6-0.7C61.3,135.7,59.4,135.9,57.5,136.2z M98.2,161.7c-0.1-0.7-0.3-3-0.7-7.1c0.2,2.4,0.4,4.8,0.7,7.3
			C98.2,161.8,98.2,161.7,98.2,161.7z M96.3,139.4c0,0.1,0,0.3,0,0.4C96.3,139.7,96.3,139.5,96.3,139.4z"/>
		<radialGradient id="SVGID_57_" cx="96.167" cy="99.1972" r="102.3651" gradientUnits="userSpaceOnUse">
			<stop  offset="0" style="stop-color:#D2DE26"/>
			<stop  offset="9.240635e-002" style="stop-color:#C8DA2B"/>
			<stop  offset="0.2525" style="stop-color:#ADD136"/>
			<stop  offset="0.4599" style="stop-color:#80C342"/>
			<stop  offset="0.5152" style="stop-color:#71BF44"/>
			<stop  offset="0.8727" style="stop-color:#2A8440"/>
			<stop  offset="1" style="stop-color:#389745"/>
		</radialGradient>
		<path fill="url(#SVGID_57_)" d="M62.7,116.4c-0.6,0.4,0.2,1.1,0.8,1.2c0.5,0.1,2-0.1,2.1-0.3c0-0.1-0.1-0.3-1.2-0.6
			C63.1,116.3,63,116.3,62.7,116.4z"/>
	</g>
</g>
</svg>
