<?xml version="1.0" encoding="utf-8"?>
<!-- Generator: Adobe Illustrator 18.0.0, SVG Export Plug-In . SVG Version: 6.00 Build 0)  -->
<!DOCTYPE svg PUBLIC "-//W3C//DTD SVG 1.1//EN" "http://www.w3.org/Graphics/SVG/1.1/DTD/svg11.dtd">
<svg version="1.1" id="Layer_1" xmlns="http://www.w3.org/2000/svg" xmlns:xlink="http://www.w3.org/1999/xlink" x="0px" y="0px"
	 viewBox="0 0 530.5 530.5" enable-background="new 0 0 530.5 530.5" xml:space="preserve">
	 <style>
	 	svg {
	 	opacity: .3;
	 	}
	 	svg {
	 	animation: spin 60s linear infinite;
	 	transform-origin: center;
	 	}

	 	@keyframes spin {
		  from {
		    transform: rotate(0deg);
		  }
		  to {
		    transform: rotate(360deg);
		  }
		}
	 </style>
<g>
	<g>
		<g>
			<g>
				
					<line fill="none" stroke="#F6F0E8" stroke-linecap="round" stroke-linejoin="round" stroke-miterlimit="10" x1="191.8" y1="68.6" x2="342.4" y2="443.3"/>
				<g>
					<g>
						<polyline fill="none" stroke="#F6F0E8" stroke-linecap="round" stroke-linejoin="round" stroke-miterlimit="10" points="
							194.7,101.6 197.1,107.6 206.1,104 						"/>
						<polyline fill="none" stroke="#F6F0E8" stroke-linecap="round" stroke-linejoin="round" stroke-miterlimit="10" points="
							212.6,94.3 215.1,100.3 206.1,104 						"/>
					</g>
					<g>
						<polyline fill="none" stroke="#F6F0E8" stroke-linecap="round" stroke-linejoin="round" stroke-miterlimit="10" points="
							191.9,89.5 193.8,94.3 201,91.4 						"/>
						<polyline fill="none" stroke="#F6F0E8" stroke-linecap="round" stroke-linejoin="round" stroke-miterlimit="10" points="
							206.3,83.7 208.2,88.5 201,91.4 						"/>
					</g>
					<g>
						<polyline fill="none" stroke="#F6F0E8" stroke-linecap="round" stroke-linejoin="round" stroke-miterlimit="10" points="
							187.1,77.5 189,82.3 196.2,79.4 						"/>
						<polyline fill="none" stroke="#F6F0E8" stroke-linecap="round" stroke-linejoin="round" stroke-miterlimit="10" points="
							201.5,71.7 203.4,76.5 196.2,79.4 						"/>
					</g>
					<circle fill="#F6F0E8" cx="191.8" cy="68.6" r="2.8"/>
				</g>
				<g>
					<g>
						<polyline fill="none" stroke="#F6F0E8" stroke-linecap="round" stroke-linejoin="round" stroke-miterlimit="10" points="
							322.6,420 320.2,414 329.2,410.3 						"/>
						<polyline fill="none" stroke="#F6F0E8" stroke-linecap="round" stroke-linejoin="round" stroke-miterlimit="10" points="
							340.6,412.7 338.2,406.7 329.2,410.3 						"/>
					</g>
					<g>
						<polyline fill="none" stroke="#F6F0E8" stroke-linecap="round" stroke-linejoin="round" stroke-miterlimit="10" points="
							329,430.6 327.1,425.8 334.3,422.9 						"/>
						<polyline fill="none" stroke="#F6F0E8" stroke-linecap="round" stroke-linejoin="round" stroke-miterlimit="10" points="
							343.4,424.8 341.4,420 334.3,422.9 						"/>
					</g>
					<g>
						<polyline fill="none" stroke="#F6F0E8" stroke-linecap="round" stroke-linejoin="round" stroke-miterlimit="10" points="
							333.8,442.6 331.9,437.8 339.1,434.9 						"/>
						<polyline fill="none" stroke="#F6F0E8" stroke-linecap="round" stroke-linejoin="round" stroke-miterlimit="10" points="
							348.2,436.8 346.3,432 339.1,434.9 						"/>
					</g>
					<circle fill="#F6F0E8" cx="343.4" cy="445.7" r="2.8"/>
				</g>
			</g>
			<g>
				
					<line fill="none" stroke="#F6F0E8" stroke-linecap="round" stroke-linejoin="round" stroke-miterlimit="10" x1="346.9" y1="70.2" x2="188.4" y2="441.7"/>
				<g>
					<g>
						<polyline fill="none" stroke="#F6F0E8" stroke-linecap="round" stroke-linejoin="round" stroke-miterlimit="10" points="
							325.6,95.5 323.1,101.5 332,105.3 						"/>
						<polyline fill="none" stroke="#F6F0E8" stroke-linecap="round" stroke-linejoin="round" stroke-miterlimit="10" points="
							343.4,103.1 340.9,109.1 332,105.3 						"/>
					</g>
					<g>
						<polyline fill="none" stroke="#F6F0E8" stroke-linecap="round" stroke-linejoin="round" stroke-miterlimit="10" points="
							332.2,85 330.2,89.8 337.3,92.8 						"/>
						<polyline fill="none" stroke="#F6F0E8" stroke-linecap="round" stroke-linejoin="round" stroke-miterlimit="10" points="
							346.5,91.1 344.4,95.8 337.3,92.8 						"/>
					</g>
					<g>
						<polyline fill="none" stroke="#F6F0E8" stroke-linecap="round" stroke-linejoin="round" stroke-miterlimit="10" points="
							337.3,73.1 335.2,77.9 342.4,80.9 						"/>
						<polyline fill="none" stroke="#F6F0E8" stroke-linecap="round" stroke-linejoin="round" stroke-miterlimit="10" points="
							351.5,79.2 349.5,84 342.4,80.9 						"/>
					</g>
					<circle fill="#F6F0E8" cx="346.9" cy="70.2" r="2.8"/>
				</g>
				<g>
					<g>
						<polyline fill="none" stroke="#F6F0E8" stroke-linecap="round" stroke-linejoin="round" stroke-miterlimit="10" points="
							190.9,411.1 193.5,405.2 202.4,409 						"/>
						<polyline fill="none" stroke="#F6F0E8" stroke-linecap="round" stroke-linejoin="round" stroke-miterlimit="10" points="
							208.8,418.8 211.3,412.8 202.4,409 						"/>
					</g>
					<g>
						<polyline fill="none" stroke="#F6F0E8" stroke-linecap="round" stroke-linejoin="round" stroke-miterlimit="10" points="
							187.9,423.2 189.9,418.4 197.1,421.5 						"/>
						<polyline fill="none" stroke="#F6F0E8" stroke-linecap="round" stroke-linejoin="round" stroke-miterlimit="10" points="
							202.2,429.3 204.2,424.5 197.1,421.5 						"/>
					</g>
					<g>
						<polyline fill="none" stroke="#F6F0E8" stroke-linecap="round" stroke-linejoin="round" stroke-miterlimit="10" points="
							182.8,435.1 184.9,430.3 192,433.4 						"/>
						<polyline fill="none" stroke="#F6F0E8" stroke-linecap="round" stroke-linejoin="round" stroke-miterlimit="10" points="
							197.1,441.2 199.1,436.4 192,433.4 						"/>
					</g>
					<circle fill="#F6F0E8" cx="187.4" cy="444.1" r="2.8"/>
				</g>
			</g>
			<g>
				
					<line fill="none" stroke="#F6F0E8" stroke-linecap="round" stroke-linejoin="round" stroke-miterlimit="10" x1="455.8" y1="181.2" x2="81" y2="331.8"/>
				<g>
					<g>
						<polyline fill="none" stroke="#F6F0E8" stroke-linecap="round" stroke-linejoin="round" stroke-miterlimit="10" points="
							422.7,183.9 416.7,186.2 420.4,195.4 						"/>
						<polyline fill="none" stroke="#F6F0E8" stroke-linecap="round" stroke-linejoin="round" stroke-miterlimit="10" points="
							430,201.9 423.9,204.2 420.4,195.4 						"/>
					</g>
					<g>
						<polyline fill="none" stroke="#F6F0E8" stroke-linecap="round" stroke-linejoin="round" stroke-miterlimit="10" points="
							434.9,181.2 430.1,183.2 433,190.3 						"/>
						<polyline fill="none" stroke="#F6F0E8" stroke-linecap="round" stroke-linejoin="round" stroke-miterlimit="10" points="
							440.7,195.6 435.9,197.5 433,190.3 						"/>
					</g>
					<g>
						<polyline fill="none" stroke="#F6F0E8" stroke-linecap="round" stroke-linejoin="round" stroke-miterlimit="10" points="
							446.9,176.4 442.1,178.3 445,185.5 						"/>
						<polyline fill="none" stroke="#F6F0E8" stroke-linecap="round" stroke-linejoin="round" stroke-miterlimit="10" points="
							452.7,190.8 447.9,192.7 445,185.5 						"/>
					</g>
					<circle fill="#F6F0E8" cx="455.4" cy="181" r="2.8"/>
				</g>
				<g>
					<g>
						<polyline fill="none" stroke="#F6F0E8" stroke-linecap="round" stroke-linejoin="round" stroke-miterlimit="10" points="
							104.4,312 110.4,309.5 114,318.5 						"/>
						<polyline fill="none" stroke="#F6F0E8" stroke-linecap="round" stroke-linejoin="round" stroke-miterlimit="10" points="
							111.6,329.9 117.6,327.5 114,318.5 						"/>
					</g>
					<g>
						<polyline fill="none" stroke="#F6F0E8" stroke-linecap="round" stroke-linejoin="round" stroke-miterlimit="10" points="
							93.7,318.3 98.5,316.4 101.4,323.6 						"/>
						<polyline fill="none" stroke="#F6F0E8" stroke-linecap="round" stroke-linejoin="round" stroke-miterlimit="10" points="
							99.5,332.7 104.3,330.8 101.4,323.6 						"/>
					</g>
					<g>
						<polyline fill="none" stroke="#F6F0E8" stroke-linecap="round" stroke-linejoin="round" stroke-miterlimit="10" points="
							81.7,323.1 86.5,321.2 89.4,328.4 						"/>
						<polyline fill="none" stroke="#F6F0E8" stroke-linecap="round" stroke-linejoin="round" stroke-miterlimit="10" points="
							87.5,337.5 92.3,335.6 89.4,328.4 						"/>
					</g>
					<circle fill="#F6F0E8" cx="78.3" cy="332.6" r="2.8"/>
				</g>
			</g>
			<g>
				
					<line fill="none" stroke="#F6F0E8" stroke-linecap="round" stroke-linejoin="round" stroke-miterlimit="10" x1="453.9" y1="336.5" x2="82.5" y2="178"/>
				<g>
					<g>
						<polyline fill="none" stroke="#F6F0E8" stroke-linecap="round" stroke-linejoin="round" stroke-miterlimit="10" points="
							428.7,315 422.8,312.4 418.9,321.5 						"/>
						<polyline fill="none" stroke="#F6F0E8" stroke-linecap="round" stroke-linejoin="round" stroke-miterlimit="10" points="
							421.1,332.8 415.2,330.2 418.9,321.5 						"/>
					</g>
					<g>
						<polyline fill="none" stroke="#F6F0E8" stroke-linecap="round" stroke-linejoin="round" stroke-miterlimit="10" points="
							439.1,321.7 434.4,319.7 431.4,326.8 						"/>
						<polyline fill="none" stroke="#F6F0E8" stroke-linecap="round" stroke-linejoin="round" stroke-miterlimit="10" points="
							433.1,336 428.3,334 431.4,326.8 						"/>
					</g>
					<g>
						<polyline fill="none" stroke="#F6F0E8" stroke-linecap="round" stroke-linejoin="round" stroke-miterlimit="10" points="
							451,326.8 446.3,324.8 443.2,331.9 						"/>
						<polyline fill="none" stroke="#F6F0E8" stroke-linecap="round" stroke-linejoin="round" stroke-miterlimit="10" points="
							444.9,341.1 440.2,339 443.2,331.9 						"/>
					</g>
					<circle fill="#F6F0E8" cx="453.8" cy="336.1" r="2.8"/>
				</g>
				<g>
					<g>
						<polyline fill="none" stroke="#F6F0E8" stroke-linecap="round" stroke-linejoin="round" stroke-miterlimit="10" points="
							113,180.5 119,183 115.1,191.9 						"/>
						<polyline fill="none" stroke="#F6F0E8" stroke-linecap="round" stroke-linejoin="round" stroke-miterlimit="10" points="
							105.4,198.3 111.3,200.8 115.1,191.9 						"/>
					</g>
					<g>
						<polyline fill="none" stroke="#F6F0E8" stroke-linecap="round" stroke-linejoin="round" stroke-miterlimit="10" points="
							101,177.4 105.7,179.5 102.7,186.6 						"/>
						<polyline fill="none" stroke="#F6F0E8" stroke-linecap="round" stroke-linejoin="round" stroke-miterlimit="10" points="
							94.9,191.7 99.6,193.7 102.7,186.6 						"/>
					</g>
					<g>
						<polyline fill="none" stroke="#F6F0E8" stroke-linecap="round" stroke-linejoin="round" stroke-miterlimit="10" points="
							89.1,172.4 93.8,174.4 90.8,181.5 						"/>
						<polyline fill="none" stroke="#F6F0E8" stroke-linecap="round" stroke-linejoin="round" stroke-miterlimit="10" points="
							83,186.6 87.7,188.7 90.8,181.5 						"/>
					</g>
					<circle fill="#F6F0E8" cx="79.9" cy="176.6" r="2.8"/>
				</g>
			</g>
		</g>
		
			<circle fill="#23292A" stroke="#F6F0E8" stroke-linecap="round" stroke-linejoin="round" stroke-miterlimit="10" cx="267.7" cy="278" r="131.7"/>
		
			<circle fill="#23292A" stroke="#F6F0E8" stroke-linecap="round" stroke-linejoin="round" stroke-miterlimit="10" cx="267.7" cy="278" r="131.7"/>
		
			<circle fill="#23292A" stroke="#F6F0E8" stroke-linecap="round" stroke-linejoin="round" stroke-miterlimit="10" cx="267.7" cy="278" r="117.1"/>
		
			<circle fill="#23292A" stroke="#F6F0E8" stroke-linecap="round" stroke-linejoin="round" stroke-miterlimit="10" cx="267.7" cy="280.2" r="84.9"/>
		
			<circle fill="#23292A" stroke="#F6F0E8" stroke-linecap="round" stroke-linejoin="round" stroke-miterlimit="10" cx="267.7" cy="280.2" r="74.5"/>
		<path fill="none" stroke="#F6F0E8" stroke-linecap="round" stroke-linejoin="round" stroke-miterlimit="10" d="M267.3,205.8
			c34.2,4.1,58.5,35.1,54.5,69.2c-3.3,27.3-28.1,46.8-55.4,43.6c-21.9-2.6-37.5-22.4-34.9-44.3c2.1-17.5,18-30,35.4-27.9"/>
		
			<line fill="none" stroke="#F6F0E8" stroke-linecap="round" stroke-linejoin="round" stroke-miterlimit="10" x1="267" y1="277.9" x2="267" y2="160.9"/>
		
			<line fill="none" stroke="#F6F0E8" stroke-linecap="round" stroke-linejoin="round" stroke-miterlimit="10" x1="267.7" y1="278.4" x2="285.5" y2="162.8"/>
		
			<line fill="none" stroke="#F6F0E8" stroke-linecap="round" stroke-linejoin="round" stroke-miterlimit="10" x1="267.7" y1="278.4" x2="302.9" y2="166.8"/>
		
			<line fill="none" stroke="#F6F0E8" stroke-linecap="round" stroke-linejoin="round" stroke-miterlimit="10" x1="267.7" y1="278.4" x2="319.5" y2="173.5"/>
		
			<line fill="none" stroke="#F6F0E8" stroke-linecap="round" stroke-linejoin="round" stroke-miterlimit="10" x1="267.7" y1="278.4" x2="334.8" y2="182.6"/>
		
			<line fill="none" stroke="#F6F0E8" stroke-linecap="round" stroke-linejoin="round" stroke-miterlimit="10" x1="267.7" y1="278.4" x2="348.6" y2="194"/>
		
			<line fill="none" stroke="#F6F0E8" stroke-linecap="round" stroke-linejoin="round" stroke-miterlimit="10" x1="267.7" y1="278.4" x2="360.5" y2="207.3"/>
		
			<line fill="none" stroke="#F6F0E8" stroke-linecap="round" stroke-linejoin="round" stroke-miterlimit="10" x1="267.7" y1="278.4" x2="370.3" y2="222.3"/>
		
			<line fill="none" stroke="#F6F0E8" stroke-linecap="round" stroke-linejoin="round" stroke-miterlimit="10" x1="267.7" y1="278.4" x2="377.6" y2="238.5"/>
		
			<line fill="none" stroke="#F6F0E8" stroke-linecap="round" stroke-linejoin="round" stroke-miterlimit="10" x1="267.7" y1="278.4" x2="382.4" y2="255.8"/>
		
			<line fill="none" stroke="#F6F0E8" stroke-linecap="round" stroke-linejoin="round" stroke-miterlimit="10" x1="267.7" y1="278.4" x2="384.5" y2="273.5"/>
		
			<line fill="none" stroke="#F6F0E8" stroke-linecap="round" stroke-linejoin="round" stroke-miterlimit="10" x1="267.7" y1="278.4" x2="383.9" y2="291.4"/>
		
			<line fill="none" stroke="#F6F0E8" stroke-linecap="round" stroke-linejoin="round" stroke-miterlimit="10" x1="267.7" y1="278.4" x2="374.6" y2="325.8"/>
		
			<line fill="none" stroke="#F6F0E8" stroke-linecap="round" stroke-linejoin="round" stroke-miterlimit="10" x1="267.7" y1="278.4" x2="355.4" y2="355.8"/>
		
			<line fill="none" stroke="#F6F0E8" stroke-linecap="round" stroke-linejoin="round" stroke-miterlimit="10" x1="267.7" y1="278.4" x2="328" y2="378.6"/>
		
			<line fill="none" stroke="#F6F0E8" stroke-linecap="round" stroke-linejoin="round" stroke-miterlimit="10" x1="267.7" y1="278.4" x2="295" y2="392.1"/>
		
			<line fill="none" stroke="#F6F0E8" stroke-linecap="round" stroke-linejoin="round" stroke-miterlimit="10" x1="267.7" y1="278.4" x2="259.5" y2="395"/>
		
			<line fill="none" stroke="#F6F0E8" stroke-linecap="round" stroke-linejoin="round" stroke-miterlimit="10" x1="267.7" y1="278.4" x2="224.8" y2="387.2"/>
		
			<line fill="none" stroke="#F6F0E8" stroke-linecap="round" stroke-linejoin="round" stroke-miterlimit="10" x1="267.7" y1="278.4" x2="194" y2="369.2"/>
		
			<line fill="none" stroke="#F6F0E8" stroke-linecap="round" stroke-linejoin="round" stroke-miterlimit="10" x1="267.7" y1="278.4" x2="155.2" y2="310.4"/>
		
			<line fill="none" stroke="#F6F0E8" stroke-linecap="round" stroke-linejoin="round" stroke-miterlimit="10" x1="267.7" y1="278.4" x2="157.2" y2="240"/>
		
			<line fill="none" stroke="#F6F0E8" stroke-linecap="round" stroke-linejoin="round" stroke-miterlimit="10" x1="267.7" y1="278.4" x2="199.2" y2="183.5"/>
		<polygon fill="none" stroke="#F6F0E8" stroke-linecap="round" stroke-linejoin="round" stroke-miterlimit="10" points="
			267.7,106.2 104.9,396.4 267.7,396.4 430.4,396.4 		"/>
	</g>
	<circle fill="none" stroke="#F6F0E8" stroke-miterlimit="10" cx="264.2" cy="28.3" r="27.8"/>
	<circle fill="none" stroke="#F6F0E8" stroke-miterlimit="10" cx="432.1" cy="97" r="27.8"/>
	<circle fill="none" stroke="#F6F0E8" stroke-miterlimit="10" cx="502.2" cy="264.2" r="27.8"/>
	<circle fill="none" stroke="#F6F0E8" stroke-miterlimit="10" cx="433.5" cy="432.1" r="27.8"/>
	<circle fill="none" stroke="#F6F0E8" stroke-miterlimit="10" cx="266.3" cy="502.2" r="27.8"/>
	<circle fill="none" stroke="#F6F0E8" stroke-miterlimit="10" cx="98.4" cy="433.5" r="27.8"/>
	<circle fill="none" stroke="#F6F0E8" stroke-miterlimit="10" cx="28.3" cy="266.3" r="27.8"/>
	<circle fill="none" stroke="#F6F0E8" stroke-miterlimit="10" cx="97" cy="98.4" r="27.8"/>
	<g>
		<circle fill="none" stroke="#F6F0E8" stroke-miterlimit="10" stroke-dasharray="7.9801,7.9801" cx="265.2" cy="265.2" r="228.6"/>
	</g>
	<circle fill="none" stroke="#F6F0E8" stroke-miterlimit="10" cx="265.2" cy="265.2" r="235.1"/>
</g>
</svg>
